<?xml version="1.0" encoding="UTF-8" standalone="no"?>
<!DOCTYPE svg PUBLIC "-//W3C//DTD SVG 1.1//EN"
 "http://www.w3.org/Graphics/SVG/1.1/DTD/svg11.dtd">
<!-- Generated by graphviz version 12.2.0 (20241103.1931)
 -->
<!-- Title: dependency&#45;cruiser output Pages: 1 -->
<svg width="897pt" height="1103pt"
 viewBox="0.00 0.00 896.75 1102.81" xmlns="http://www.w3.org/2000/svg" xmlns:xlink="http://www.w3.org/1999/xlink">
<g id="graph0" class="graph" transform="scale(1 1) rotate(0) translate(4 1098.81)">
<title>dependency&#45;cruiser output</title>
<polygon fill="white" stroke="none" points="-4,4 -4,-1098.81 892.75,-1098.81 892.75,4 -4,4"/>
<g id="clust1" class="cluster">
<title>cluster_node_modules</title>
<path fill="#ffffff" stroke="black" stroke-width="2" d="M631.75,-170.81C631.75,-170.81 686.75,-170.81 686.75,-170.81 692.75,-170.81 698.75,-176.81 698.75,-182.81 698.75,-182.81 698.75,-210.81 698.75,-210.81 698.75,-216.81 692.75,-222.81 686.75,-222.81 686.75,-222.81 631.75,-222.81 631.75,-222.81 625.75,-222.81 619.75,-216.81 619.75,-210.81 619.75,-210.81 619.75,-182.81 619.75,-182.81 619.75,-176.81 625.75,-170.81 631.75,-170.81"/>
<text text-anchor="middle" x="659.25" y="-210.26" font-family="Helvetica,sans-Serif" font-weight="bold" font-size="9.00">node_modules</text>
</g>
<g id="clust2" class="cluster">
<title>cluster_src</title>
<path fill="#ffffff" stroke="black" stroke-width="2" d="M20,-252.81C20,-252.81 868.75,-252.81 868.75,-252.81 874.75,-252.81 880.75,-258.81 880.75,-264.81 880.75,-264.81 880.75,-1074.81 880.75,-1074.81 880.75,-1080.81 874.75,-1086.81 868.75,-1086.81 868.75,-1086.81 20,-1086.81 20,-1086.81 14,-1086.81 8,-1080.81 8,-1074.81 8,-1074.81 8,-264.81 8,-264.81 8,-258.81 14,-252.81 20,-252.81"/>
<text text-anchor="middle" x="444.38" y="-1074.26" font-family="Helvetica,sans-Serif" font-weight="bold" font-size="9.00">src</text>
</g>
<g id="clust3" class="cluster">
<title>cluster_src/app</title>
<path fill="#ffffff" stroke="black" stroke-width="2" d="M28,-260.81C28,-260.81 860.75,-260.81 860.75,-260.81 866.75,-260.81 872.75,-266.81 872.75,-272.81 872.75,-272.81 872.75,-1048.81 872.75,-1048.81 872.75,-1054.81 866.75,-1060.81 860.75,-1060.81 860.75,-1060.81 28,-1060.81 28,-1060.81 22,-1060.81 16,-1054.81 16,-1048.81 16,-1048.81 16,-272.81 16,-272.81 16,-266.81 22,-260.81 28,-260.81"/>
<text text-anchor="middle" x="444.38" y="-1048.26" font-family="Helvetica,sans-Serif" font-weight="bold" font-size="9.00">app</text>
</g>
<g id="clust4" class="cluster">
<title>cluster_src/app/api</title>
<path fill="#ffffff" stroke="black" stroke-width="2" d="M36,-268.81C36,-268.81 852.75,-268.81 852.75,-268.81 858.75,-268.81 864.75,-274.81 864.75,-280.81 864.75,-280.81 864.75,-932.81 864.75,-932.81 864.75,-938.81 858.75,-944.81 852.75,-944.81 852.75,-944.81 36,-944.81 36,-944.81 30,-944.81 24,-938.81 24,-932.81 24,-932.81 24,-280.81 24,-280.81 24,-274.81 30,-268.81 36,-268.81"/>
<text text-anchor="middle" x="444.38" y="-932.26" font-family="Helvetica,sans-Serif" font-weight="bold" font-size="9.00">api</text>
</g>
<g id="clust5" class="cluster">
<title>cluster_src/app/api/lib</title>
<path fill="#ffffff" stroke="black" stroke-width="2" d="M44,-276.81C44,-276.81 844.75,-276.81 844.75,-276.81 850.75,-276.81 856.75,-282.81 856.75,-288.81 856.75,-288.81 856.75,-906.81 856.75,-906.81 856.75,-912.81 850.75,-918.81 844.75,-918.81 844.75,-918.81 44,-918.81 44,-918.81 38,-918.81 32,-912.81 32,-906.81 32,-906.81 32,-288.81 32,-288.81 32,-282.81 38,-276.81 44,-276.81"/>
<text text-anchor="middle" x="444.38" y="-906.26" font-family="Helvetica,sans-Serif" font-weight="bold" font-size="9.00">lib</text>
</g>
<g id="clust6" class="cluster">
<title>cluster_src/app/api/lib/clients</title>
<path fill="#ffffff" stroke="black" stroke-width="2" d="M454.5,-524.81C454.5,-524.81 500.5,-524.81 500.5,-524.81 506.5,-524.81 512.5,-530.81 512.5,-536.81 512.5,-536.81 512.5,-594.81 512.5,-594.81 512.5,-600.81 506.5,-606.81 500.5,-606.81 500.5,-606.81 454.5,-606.81 454.5,-606.81 448.5,-606.81 442.5,-600.81 442.5,-594.81 442.5,-594.81 442.5,-536.81 442.5,-536.81 442.5,-530.81 448.5,-524.81 454.5,-524.81"/>
<text text-anchor="middle" x="477.5" y="-594.26" font-family="Helvetica,sans-Serif" font-weight="bold" font-size="9.00">clients</text>
</g>
<g id="clust7" class="cluster">
<title>cluster_src/app/api/lib/errors</title>
<path fill="#ffffff" stroke="black" stroke-width="2" d="M545.38,-540.81C545.38,-540.81 836.75,-540.81 836.75,-540.81 842.75,-540.81 848.75,-546.81 848.75,-552.81 848.75,-552.81 848.75,-880.81 848.75,-880.81 848.75,-886.81 842.75,-892.81 836.75,-892.81 836.75,-892.81 545.38,-892.81 545.38,-892.81 539.38,-892.81 533.38,-886.81 533.38,-880.81 533.38,-880.81 533.38,-552.81 533.38,-552.81 533.38,-546.81 539.38,-540.81 545.38,-540.81"/>
<text text-anchor="middle" x="691.06" y="-880.26" font-family="Helvetica,sans-Serif" font-weight="bold" font-size="9.00">errors</text>
</g>
<g id="clust8" class="cluster">
<title>cluster_src/app/api/lib/errors/clients</title>
<path fill="#ffffff" stroke="black" stroke-width="2" d="M553.38,-574.81C553.38,-574.81 599.38,-574.81 599.38,-574.81 605.38,-574.81 611.38,-580.81 611.38,-586.81 611.38,-586.81 611.38,-644.81 611.38,-644.81 611.38,-650.81 605.38,-656.81 599.38,-656.81 599.38,-656.81 553.38,-656.81 553.38,-656.81 547.38,-656.81 541.38,-650.81 541.38,-644.81 541.38,-644.81 541.38,-586.81 541.38,-586.81 541.38,-580.81 547.38,-574.81 553.38,-574.81"/>
<text text-anchor="middle" x="576.38" y="-644.26" font-family="Helvetica,sans-Serif" font-weight="bold" font-size="9.00">clients</text>
</g>
<g id="clust9" class="cluster">
<title>cluster_src/app/api/lib/errors/services</title>
<path fill="#ffffff" stroke="black" stroke-width="2" d="M553.38,-664.81C553.38,-664.81 599.38,-664.81 599.38,-664.81 605.38,-664.81 611.38,-670.81 611.38,-676.81 611.38,-676.81 611.38,-854.81 611.38,-854.81 611.38,-860.81 605.38,-866.81 599.38,-866.81 599.38,-866.81 553.38,-866.81 553.38,-866.81 547.38,-866.81 541.38,-860.81 541.38,-854.81 541.38,-854.81 541.38,-676.81 541.38,-676.81 541.38,-670.81 547.38,-664.81 553.38,-664.81"/>
<text text-anchor="middle" x="576.38" y="-854.26" font-family="Helvetica,sans-Serif" font-weight="bold" font-size="9.00">services</text>
</g>
<g id="clust10" class="cluster">
<title>cluster_src/app/api/lib/services</title>
<path fill="#ffffff" stroke="black" stroke-width="2" d="M52,-432.81C52,-432.81 410,-432.81 410,-432.81 416,-432.81 422,-438.81 422,-444.81 422,-444.81 422,-562.81 422,-562.81 422,-568.81 416,-574.81 410,-574.81 410,-574.81 52,-574.81 52,-574.81 46,-574.81 40,-568.81 40,-562.81 40,-562.81 40,-444.81 40,-444.81 40,-438.81 46,-432.81 52,-432.81"/>
<text text-anchor="middle" x="231" y="-562.26" font-family="Helvetica,sans-Serif" font-weight="bold" font-size="9.00">services</text>
</g>
<g id="clust11" class="cluster">
<title>cluster_src/app/api/lib/types</title>
<path fill="#ffffff" stroke="black" stroke-width="2" d="M545,-324.81C545,-324.81 681.75,-324.81 681.75,-324.81 687.75,-324.81 693.75,-330.81 693.75,-336.81 693.75,-336.81 693.75,-454.81 693.75,-454.81 693.75,-460.81 687.75,-466.81 681.75,-466.81 681.75,-466.81 545,-466.81 545,-466.81 539,-466.81 533,-460.81 533,-454.81 533,-454.81 533,-336.81 533,-336.81 533,-330.81 539,-324.81 545,-324.81"/>
<text text-anchor="middle" x="613.38" y="-454.26" font-family="Helvetica,sans-Serif" font-weight="bold" font-size="9.00">types</text>
</g>
<g id="clust12" class="cluster">
<title>cluster_src/app/api/lib/utils</title>
<path fill="#ffffff" stroke="black" stroke-width="2" d="M442,-350.81C442,-350.81 513,-350.81 513,-350.81 519,-350.81 525,-356.81 525,-362.81 525,-362.81 525,-480.81 525,-480.81 525,-486.81 519,-492.81 513,-492.81 513,-492.81 442,-492.81 442,-492.81 436,-492.81 430,-486.81 430,-480.81 430,-480.81 430,-362.81 430,-362.81 430,-356.81 436,-350.81 442,-350.81"/>
<text text-anchor="middle" x="477.5" y="-480.26" font-family="Helvetica,sans-Serif" font-weight="bold" font-size="9.00">utils</text>
</g>
<g id="clust13" class="cluster">
<title>cluster_src/app/types</title>
<path fill="#ffffff" stroke="black" stroke-width="2" d="M553.38,-952.81C553.38,-952.81 599.38,-952.81 599.38,-952.81 605.38,-952.81 611.38,-958.81 611.38,-964.81 611.38,-964.81 611.38,-1022.81 611.38,-1022.81 611.38,-1028.81 605.38,-1034.81 599.38,-1034.81 599.38,-1034.81 553.38,-1034.81 553.38,-1034.81 547.38,-1034.81 541.38,-1028.81 541.38,-1022.81 541.38,-1022.81 541.38,-964.81 541.38,-964.81 541.38,-958.81 547.38,-952.81 553.38,-952.81"/>
<text text-anchor="middle" x="576.38" y="-1022.26" font-family="Helvetica,sans-Serif" font-weight="bold" font-size="9.00">types</text>
</g>
<!-- node_modules/.pnpm -->
<g id="node1" class="node">
<title>node_modules/.pnpm</title>
<g id="a_node1"><a xlink:href="https://www.npmjs.com/package/.pnpm" xlink:title=".pnpm">
<polygon fill="#c40b0a" fill-opacity="0.101961" stroke="black" points="685.75,-196.68 633.72,-196.68 631.75,-194.71 631.75,-178.93 683.78,-178.93 685.75,-180.9 685.75,-196.68"/>
<polyline fill="none" stroke="black" points="683.78,-194.71 631.75,-194.71"/>
<polyline fill="none" stroke="black" points="683.78,-194.71 683.78,-178.93"/>
<polyline fill="none" stroke="black" points="683.78,-194.71 685.75,-196.68"/>
<text text-anchor="start" x="646" y="-184.13" font-family="Helvetica,sans-Serif" font-size="9.00" fill="#c40b0a">.pnpm</text>
</a>
</g>
</g>
<!-- src/app/api/lib/clients/genius.ts -->
<g id="node2" class="node">
<title>src/app/api/lib/clients/genius.ts</title>
<g id="a_node2"><a xlink:href="src/app/api/lib/clients/genius.ts" xlink:title="genius.ts">
<path fill="#ddfeff" stroke="black" d="M498.58,-580.68C498.58,-580.68 456.42,-580.68 456.42,-580.68 453.46,-580.68 450.5,-577.72 450.5,-574.76 450.5,-574.76 450.5,-568.85 450.5,-568.85 450.5,-565.89 453.46,-562.93 456.42,-562.93 456.42,-562.93 498.58,-562.93 498.58,-562.93 501.54,-562.93 504.5,-565.89 504.5,-568.85 504.5,-568.85 504.5,-574.76 504.5,-574.76 504.5,-577.72 501.54,-580.68 498.58,-580.68"/>
<text text-anchor="start" x="459.12" y="-568.13" font-family="Helvetica,sans-Serif" font-size="9.00">genius.ts</text>
</a>
</g>
</g>
<!-- src/app/api/lib/env.ts -->
<g id="node3" class="node">
<title>src/app/api/lib/env.ts</title>
<g id="a_node3"><a xlink:href="src/app/api/lib/env.ts" xlink:title="env.ts">
<path fill="#ddfeff" stroke="black" d="M597.46,-316.68C597.46,-316.68 555.29,-316.68 555.29,-316.68 552.33,-316.68 549.38,-313.72 549.38,-310.76 549.38,-310.76 549.38,-304.85 549.38,-304.85 549.38,-301.89 552.33,-298.93 555.29,-298.93 555.29,-298.93 597.46,-298.93 597.46,-298.93 600.42,-298.93 603.38,-301.89 603.38,-304.85 603.38,-304.85 603.38,-310.76 603.38,-310.76 603.38,-313.72 600.42,-316.68 597.46,-316.68"/>
<text text-anchor="start" x="564.38" y="-304.13" font-family="Helvetica,sans-Serif" font-size="9.00">env.ts</text>
</a>
</g>
</g>
<!-- src/app/api/lib/clients/genius.ts&#45;&gt;src/app/api/lib/env.ts -->
<g id="edge1" class="edge">
<title>src/app/api/lib/clients/genius.ts&#45;&gt;src/app/api/lib/env.ts</title>
<path fill="none" stroke="#000000" stroke-width="2" stroke-opacity="0.200000" d="M504.54,-569.17C512.33,-567.04 520.1,-563.31 525,-556.81 540.74,-535.95 517.34,-342.72 533,-321.81 535.13,-318.96 537.87,-316.68 540.91,-314.86"/>
<polygon fill="#000000" fill-opacity="0.200000" stroke="#000000" stroke-width="2" stroke-opacity="0.200000" points="541.61,-316.85 546.22,-312.47 539.89,-313.02 541.61,-316.85"/>
</g>
<!-- src/app/api/lib/errors/clients/genius.ts -->
<g id="node4" class="node">
<title>src/app/api/lib/errors/clients/genius.ts</title>
<g id="a_node4"><a xlink:href="src/app/api/lib/errors/clients/genius.ts" xlink:title="genius.ts">
<path fill="#ddfeff" stroke="black" d="M597.46,-630.68C597.46,-630.68 555.29,-630.68 555.29,-630.68 552.33,-630.68 549.38,-627.72 549.38,-624.76 549.38,-624.76 549.38,-618.85 549.38,-618.85 549.38,-615.89 552.33,-612.93 555.29,-612.93 555.29,-612.93 597.46,-612.93 597.46,-612.93 600.42,-612.93 603.38,-615.89 603.38,-618.85 603.38,-618.85 603.38,-624.76 603.38,-624.76 603.38,-627.72 600.42,-630.68 597.46,-630.68"/>
<text text-anchor="start" x="558" y="-618.13" font-family="Helvetica,sans-Serif" font-size="9.00">genius.ts</text>
</a>
</g>
</g>
<!-- src/app/api/lib/clients/genius.ts&#45;&gt;src/app/api/lib/errors/clients/genius.ts -->
<g id="edge2" class="edge">
<title>src/app/api/lib/clients/genius.ts&#45;&gt;src/app/api/lib/errors/clients/genius.ts</title>
<path fill="none" stroke="#000000" stroke-width="2" stroke-opacity="0.200000" d="M491,-581.02C501.75,-588.64 517.85,-599.39 533,-606.81 535.44,-608 538.01,-609.15 540.62,-610.25"/>
<polygon fill="#000000" fill-opacity="0.200000" stroke="#000000" stroke-width="2" stroke-opacity="0.200000" points="539.82,-612.19 546.17,-612.42 541.35,-608.28 539.82,-612.19"/>
</g>
<!-- src/app/types/genius.ts -->
<g id="node5" class="node">
<title>src/app/types/genius.ts</title>
<g id="a_node5"><a xlink:href="src/app/types/genius.ts" xlink:title="genius.ts">
<path fill="#ddfeff" stroke="black" d="M597.46,-1008.68C597.46,-1008.68 555.29,-1008.68 555.29,-1008.68 552.33,-1008.68 549.38,-1005.72 549.38,-1002.76 549.38,-1002.76 549.38,-996.85 549.38,-996.85 549.38,-993.89 552.33,-990.93 555.29,-990.93 555.29,-990.93 597.46,-990.93 597.46,-990.93 600.42,-990.93 603.38,-993.89 603.38,-996.85 603.38,-996.85 603.38,-1002.76 603.38,-1002.76 603.38,-1005.72 600.42,-1008.68 597.46,-1008.68"/>
<text text-anchor="start" x="558" y="-996.13" font-family="Helvetica,sans-Serif" font-size="9.00">genius.ts</text>
</a>
</g>
</g>
<!-- src/app/api/lib/clients/genius.ts&#45;&gt;src/app/types/genius.ts -->
<g id="edge3" class="edge">
<title>src/app/api/lib/clients/genius.ts&#45;&gt;src/app/types/genius.ts</title>
<path fill="none" stroke="#000000" stroke-opacity="0.200000" d="M505,-573.35C512.62,-575.17 520.17,-578.58 525,-584.81 538.61,-602.38 519.99,-966.79 533,-984.81 535.4,-988.13 538.59,-990.72 542.16,-992.74"/>
<polygon fill="none" stroke="#000000" stroke-opacity="0.200000" points="541.18,-994.6 547.51,-995.16 542.91,-990.77 541.18,-994.6"/>
</g>
<!-- src/app/api/lib/env.ts&#45;&gt;node_modules/.pnpm -->
<g id="edge8" class="edge">
<title>src/app/api/lib/env.ts&#45;&gt;node_modules/.pnpm</title>
<g id="a_edge8"><a xlink:title="not&#45;to&#45;dev&#45;dep">
<path fill="none" stroke="red" d="M589.16,-298.58C596.29,-292.61 605.22,-284.37 611.75,-275.81 629.28,-252.81 643.59,-222.17 651.37,-203.78"/>
<polygon fill="red" stroke="red" points="653.18,-204.89 653.54,-198.54 649.3,-203.28 653.18,-204.89"/>
</a>
</g>
<text text-anchor="middle" x="597.85" y="-242.85" font-family="Helvetica,sans-Serif" font-size="9.00" fill="red">not&#45;to&#45;dev&#45;dep</text>
</g>
<!-- src/app/api/lib/errors/base.ts -->
<g id="node10" class="node">
<title>src/app/api/lib/errors/base.ts</title>
<g id="a_node10"><a xlink:href="src/app/api/lib/errors/base.ts" xlink:title="base.ts">
<path fill="#ddfeff" stroke="black" d="M679.83,-736.68C679.83,-736.68 637.67,-736.68 637.67,-736.68 634.71,-736.68 631.75,-733.72 631.75,-730.76 631.75,-730.76 631.75,-724.85 631.75,-724.85 631.75,-721.89 634.71,-718.93 637.67,-718.93 637.67,-718.93 679.83,-718.93 679.83,-718.93 682.79,-718.93 685.75,-721.89 685.75,-724.85 685.75,-724.85 685.75,-730.76 685.75,-730.76 685.75,-733.72 682.79,-736.68 679.83,-736.68"/>
<text text-anchor="start" x="644.12" y="-724.13" font-family="Helvetica,sans-Serif" font-size="9.00">base.ts</text>
</a>
</g>
</g>
<!-- src/app/api/lib/errors/clients/genius.ts&#45;&gt;src/app/api/lib/errors/base.ts -->
<g id="edge11" class="edge">
<title>src/app/api/lib/errors/clients/genius.ts&#45;&gt;src/app/api/lib/errors/base.ts</title>
<path fill="none" stroke="#000000" stroke-width="2" stroke-opacity="0.200000" d="M585.85,-631.12C592.98,-639.08 603.34,-650.95 611.75,-661.81 624.48,-678.23 637.95,-697.86 647,-711.42"/>
<polygon fill="#000000" fill-opacity="0.200000" stroke="#000000" stroke-width="2" stroke-opacity="0.200000" points="645.05,-712.27 650.11,-716.11 648.55,-709.95 645.05,-712.27"/>
</g>
<!-- src/app/api/lib/clients/spotify.ts -->
<g id="node6" class="node">
<title>src/app/api/lib/clients/spotify.ts</title>
<g id="a_node6"><a xlink:href="src/app/api/lib/clients/spotify.ts" xlink:title="spotify.ts">
<path fill="#ddfeff" stroke="black" d="M498.58,-550.68C498.58,-550.68 456.42,-550.68 456.42,-550.68 453.46,-550.68 450.5,-547.72 450.5,-544.76 450.5,-544.76 450.5,-538.85 450.5,-538.85 450.5,-535.89 453.46,-532.93 456.42,-532.93 456.42,-532.93 498.58,-532.93 498.58,-532.93 501.54,-532.93 504.5,-535.89 504.5,-538.85 504.5,-538.85 504.5,-544.76 504.5,-544.76 504.5,-547.72 501.54,-550.68 498.58,-550.68"/>
<text text-anchor="start" x="459.88" y="-538.13" font-family="Helvetica,sans-Serif" font-size="9.00">spotify.ts</text>
</a>
</g>
</g>
<!-- src/app/api/lib/clients/spotify.ts&#45;&gt;node_modules/.pnpm -->
<g id="edge6" class="edge">
<title>src/app/api/lib/clients/spotify.ts&#45;&gt;node_modules/.pnpm</title>
<path fill="none" stroke="#000000" stroke-opacity="0.200000" d="M492.31,-532.71C503.39,-524.52 518.18,-511.41 525,-495.81 535.69,-471.36 517.5,-277.52 533,-255.81 554.76,-225.33 579.38,-244.65 611.75,-225.81 623.1,-219.2 634.48,-209.82 643.09,-202.03"/>
<polygon fill="#000000" fill-opacity="0.200000" stroke="#000000" stroke-opacity="0.200000" points="644.49,-203.6 647.46,-197.98 641.63,-200.52 644.49,-203.6"/>
</g>
<!-- src/app/api/lib/errors/clients/spotify.ts -->
<g id="node7" class="node">
<title>src/app/api/lib/errors/clients/spotify.ts</title>
<g id="a_node7"><a xlink:href="src/app/api/lib/errors/clients/spotify.ts" xlink:title="spotify.ts">
<path fill="#ddfeff" stroke="black" d="M597.46,-600.68C597.46,-600.68 555.29,-600.68 555.29,-600.68 552.33,-600.68 549.38,-597.72 549.38,-594.76 549.38,-594.76 549.38,-588.85 549.38,-588.85 549.38,-585.89 552.33,-582.93 555.29,-582.93 555.29,-582.93 597.46,-582.93 597.46,-582.93 600.42,-582.93 603.38,-585.89 603.38,-588.85 603.38,-588.85 603.38,-594.76 603.38,-594.76 603.38,-597.72 600.42,-600.68 597.46,-600.68"/>
<text text-anchor="start" x="558.75" y="-588.13" font-family="Helvetica,sans-Serif" font-size="9.00">spotify.ts</text>
</a>
</g>
</g>
<!-- src/app/api/lib/clients/spotify.ts&#45;&gt;src/app/api/lib/errors/clients/spotify.ts -->
<g id="edge4" class="edge">
<title>src/app/api/lib/clients/spotify.ts&#45;&gt;src/app/api/lib/errors/clients/spotify.ts</title>
<path fill="none" stroke="#000000" stroke-width="2" stroke-opacity="0.200000" d="M504.87,-545.86C512.12,-548.08 519.5,-551.51 525,-556.81 532.49,-564.03 525.46,-571.64 533,-578.81 535.37,-581.06 538.12,-582.92 541.06,-584.46"/>
<polygon fill="#000000" fill-opacity="0.200000" stroke="#000000" stroke-width="2" stroke-opacity="0.200000" points="540.02,-586.3 546.36,-586.67 541.63,-582.42 540.02,-586.3"/>
</g>
<!-- src/app/api/lib/utils/retry.ts -->
<g id="node8" class="node">
<title>src/app/api/lib/utils/retry.ts</title>
<g id="a_node8"><a xlink:href="src/app/api/lib/utils/retry.ts" xlink:title="retry.ts">
<path fill="#ddfeff" stroke="black" d="M498.58,-466.68C498.58,-466.68 456.42,-466.68 456.42,-466.68 453.46,-466.68 450.5,-463.72 450.5,-460.76 450.5,-460.76 450.5,-454.85 450.5,-454.85 450.5,-451.89 453.46,-448.93 456.42,-448.93 456.42,-448.93 498.58,-448.93 498.58,-448.93 501.54,-448.93 504.5,-451.89 504.5,-454.85 504.5,-454.85 504.5,-460.76 504.5,-460.76 504.5,-463.72 501.54,-466.68 498.58,-466.68"/>
<text text-anchor="start" x="464" y="-454.13" font-family="Helvetica,sans-Serif" font-size="9.00">retry.ts</text>
</a>
</g>
</g>
<!-- src/app/api/lib/clients/spotify.ts&#45;&gt;src/app/api/lib/utils/retry.ts -->
<g id="edge5" class="edge">
<title>src/app/api/lib/clients/spotify.ts&#45;&gt;src/app/api/lib/utils/retry.ts</title>
<path fill="none" stroke="#000000" stroke-width="2" stroke-opacity="0.200000" d="M477.5,-532.45C477.5,-513.62 477.5,-494.78 477.5,-475.94"/>
<polygon fill="#000000" fill-opacity="0.200000" stroke="#000000" stroke-width="2" stroke-opacity="0.200000" points="479.6,-476.02 477.5,-470.02 475.4,-476.02 479.6,-476.02"/>
</g>
<!-- src/app/api/lib/errors/clients/spotify.ts&#45;&gt;src/app/api/lib/errors/base.ts -->
<g id="edge12" class="edge">
<title>src/app/api/lib/errors/clients/spotify.ts&#45;&gt;src/app/api/lib/errors/base.ts</title>
<path fill="none" stroke="#000000" stroke-width="2" stroke-opacity="0.200000" d="M603.62,-600.53C606.61,-602.28 609.41,-604.36 611.75,-606.81 639.66,-636.09 651.06,-684.02 655.37,-709.89"/>
<polygon fill="#000000" fill-opacity="0.200000" stroke="#000000" stroke-width="2" stroke-opacity="0.200000" points="653.27,-710.03 656.25,-715.65 657.42,-709.4 653.27,-710.03"/>
</g>
<!-- src/app/api/lib/utils/retry.ts&#45;&gt;src/app/api/lib/errors/clients/spotify.ts -->
<g id="edge81" class="edge">
<title>src/app/api/lib/utils/retry.ts&#45;&gt;src/app/api/lib/errors/clients/spotify.ts</title>
<path fill="none" stroke="#000000" stroke-width="2" stroke-opacity="0.200000" d="M487.38,-466.88C498.2,-478.54 516.15,-499.9 525,-521.81 534.58,-545.53 516.4,-559.34 533,-578.81 535.18,-581.36 537.84,-583.42 540.76,-585.08"/>
<polygon fill="#000000" fill-opacity="0.200000" stroke="#000000" stroke-width="2" stroke-opacity="0.200000" points="539.81,-586.96 546.15,-587.41 541.48,-583.1 539.81,-586.96"/>
</g>
<!-- src/app/api/lib/db.ts -->
<g id="node9" class="node">
<title>src/app/api/lib/db.ts</title>
<g id="a_node9"><a xlink:href="src/app/api/lib/db.ts" xlink:title="db.ts">
<path fill="#ddfeff" stroke="black" d="M394.46,-316.68C394.46,-316.68 352.29,-316.68 352.29,-316.68 349.33,-316.68 346.38,-313.72 346.38,-310.76 346.38,-310.76 346.38,-304.85 346.38,-304.85 346.38,-301.89 349.33,-298.93 352.29,-298.93 352.29,-298.93 394.46,-298.93 394.46,-298.93 397.42,-298.93 400.38,-301.89 400.38,-304.85 400.38,-304.85 400.38,-310.76 400.38,-310.76 400.38,-313.72 397.42,-316.68 394.46,-316.68"/>
<text text-anchor="start" x="363.62" y="-304.13" font-family="Helvetica,sans-Serif" font-size="9.00">db.ts</text>
</a>
</g>
</g>
<!-- src/app/api/lib/db.ts&#45;&gt;node_modules/.pnpm -->
<g id="edge7" class="edge">
<title>src/app/api/lib/db.ts&#45;&gt;node_modules/.pnpm</title>
<path fill="none" stroke="#000000" stroke-opacity="0.200000" d="M373.8,-298.55C372.48,-267.71 372.9,-168.06 430,-125.81 494.93,-77.76 539.59,-89.49 611.75,-125.81 630.68,-135.33 643.78,-156.75 651.02,-171.73"/>
<polygon fill="#000000" fill-opacity="0.200000" stroke="#000000" stroke-opacity="0.200000" points="649.08,-172.52 653.48,-177.11 652.9,-170.78 649.08,-172.52"/>
</g>
<!-- src/app/api/lib/errors/codes.ts -->
<g id="node11" class="node">
<title>src/app/api/lib/errors/codes.ts</title>
<g id="a_node11"><a xlink:href="src/app/api/lib/errors/codes.ts" xlink:title="codes.ts">
<path fill="#ddfeff" stroke="black" d="M834.83,-758.68C834.83,-758.68 792.67,-758.68 792.67,-758.68 789.71,-758.68 786.75,-755.72 786.75,-752.76 786.75,-752.76 786.75,-746.85 786.75,-746.85 786.75,-743.89 789.71,-740.93 792.67,-740.93 792.67,-740.93 834.83,-740.93 834.83,-740.93 837.79,-740.93 840.75,-743.89 840.75,-746.85 840.75,-746.85 840.75,-752.76 840.75,-752.76 840.75,-755.72 837.79,-758.68 834.83,-758.68"/>
<text text-anchor="start" x="796.88" y="-746.13" font-family="Helvetica,sans-Serif" font-size="9.00">codes.ts</text>
</a>
</g>
</g>
<!-- src/app/api/lib/errors/base.ts&#45;&gt;src/app/api/lib/errors/codes.ts -->
<g id="edge9" class="edge">
<title>src/app/api/lib/errors/base.ts&#45;&gt;src/app/api/lib/errors/codes.ts</title>
<path fill="none" stroke="#000000" stroke-width="2" stroke-opacity="0.200000" d="M685.87,-727.16C709.18,-727.12 744.11,-728.36 773.75,-734.81 776.99,-735.51 780.31,-736.44 783.59,-737.5"/>
<polygon fill="#000000" fill-opacity="0.200000" stroke="#000000" stroke-width="2" stroke-opacity="0.200000" points="782.85,-739.46 789.21,-739.49 784.26,-735.5 782.85,-739.46"/>
</g>
<!-- src/app/api/lib/errors/messages.ts -->
<g id="node12" class="node">
<title>src/app/api/lib/errors/messages.ts</title>
<g id="a_node12"><a xlink:href="src/app/api/lib/errors/messages.ts" xlink:title="messages.ts">
<path fill="#ddfeff" stroke="black" d="M767.83,-758.68C767.83,-758.68 712.67,-758.68 712.67,-758.68 709.71,-758.68 706.75,-755.72 706.75,-752.76 706.75,-752.76 706.75,-746.85 706.75,-746.85 706.75,-743.89 709.71,-740.93 712.67,-740.93 712.67,-740.93 767.83,-740.93 767.83,-740.93 770.79,-740.93 773.75,-743.89 773.75,-746.85 773.75,-746.85 773.75,-752.76 773.75,-752.76 773.75,-755.72 770.79,-758.68 767.83,-758.68"/>
<text text-anchor="start" x="714.75" y="-746.13" font-family="Helvetica,sans-Serif" font-size="9.00">messages.ts</text>
</a>
</g>
</g>
<!-- src/app/api/lib/errors/base.ts&#45;&gt;src/app/api/lib/errors/messages.ts -->
<g id="edge10" class="edge">
<title>src/app/api/lib/errors/base.ts&#45;&gt;src/app/api/lib/errors/messages.ts</title>
<path fill="none" stroke="#000000" stroke-width="2" stroke-opacity="0.200000" d="M686.22,-735.13C689.98,-736.17 693.92,-737.26 697.88,-738.36"/>
<polygon fill="#000000" fill-opacity="0.200000" stroke="#000000" stroke-width="2" stroke-opacity="0.200000" points="697.27,-740.37 703.61,-739.94 698.39,-736.32 697.27,-740.37"/>
</g>
<!-- src/app/api/lib/errors/messages.ts&#45;&gt;src/app/api/lib/errors/codes.ts -->
<g id="edge14" class="edge">
<title>src/app/api/lib/errors/messages.ts&#45;&gt;src/app/api/lib/errors/codes.ts</title>
<path fill="none" stroke="#000000" stroke-width="2" stroke-opacity="0.200000" d="M774.07,-749.81C775.23,-749.81 776.39,-749.81 777.55,-749.81"/>
<polygon fill="#000000" fill-opacity="0.200000" stroke="#000000" stroke-width="2" stroke-opacity="0.200000" points="777.31,-751.91 783.31,-749.81 777.31,-747.71 777.31,-751.91"/>
</g>
<!-- src/app/api/lib/errors/index.ts -->
<g id="node13" class="node">
<title>src/app/api/lib/errors/index.ts</title>
<g id="a_node13"><a xlink:href="src/app/api/lib/errors/index.ts" xlink:title="index.ts">
<path fill="#ddfeff" stroke="black" d="M597.46,-566.68C597.46,-566.68 555.29,-566.68 555.29,-566.68 552.33,-566.68 549.38,-563.72 549.38,-560.76 549.38,-560.76 549.38,-554.85 549.38,-554.85 549.38,-551.89 552.33,-548.93 555.29,-548.93 555.29,-548.93 597.46,-548.93 597.46,-548.93 600.42,-548.93 603.38,-551.89 603.38,-554.85 603.38,-554.85 603.38,-560.76 603.38,-560.76 603.38,-563.72 600.42,-566.68 597.46,-566.68"/>
<text text-anchor="start" x="560.62" y="-554.13" font-family="Helvetica,sans-Serif" font-size="9.00">index.ts</text>
</a>
</g>
</g>
<!-- src/app/api/lib/errors/index.ts&#45;&gt;src/app/api/lib/errors/base.ts -->
<g id="edge13" class="edge">
<title>src/app/api/lib/errors/index.ts&#45;&gt;src/app/api/lib/errors/base.ts</title>
<path fill="none" stroke="#000000" stroke-width="2" stroke-opacity="0.200000" d="M603.79,-565.57C606.75,-567.27 609.5,-569.32 611.75,-571.81 648.42,-612.34 655.94,-680.78 657.42,-711.74"/>
<polygon fill="#000000" fill-opacity="0.200000" stroke="#000000" stroke-width="2" stroke-opacity="0.200000" points="655.55,-717.84 657.42,-711.77 659.74,-717.69 655.55,-717.84"/>
</g>
<!-- src/app/api/lib/errors/services/game.ts -->
<g id="node14" class="node">
<title>src/app/api/lib/errors/services/game.ts</title>
<g id="a_node14"><a xlink:href="src/app/api/lib/errors/services/game.ts" xlink:title="game.ts">
<path fill="#ddfeff" stroke="black" d="M597.46,-840.68C597.46,-840.68 555.29,-840.68 555.29,-840.68 552.33,-840.68 549.38,-837.72 549.38,-834.76 549.38,-834.76 549.38,-828.85 549.38,-828.85 549.38,-825.89 552.33,-822.93 555.29,-822.93 555.29,-822.93 597.46,-822.93 597.46,-822.93 600.42,-822.93 603.38,-825.89 603.38,-828.85 603.38,-828.85 603.38,-834.76 603.38,-834.76 603.38,-837.72 600.42,-840.68 597.46,-840.68"/>
<text text-anchor="start" x="560.25" y="-828.13" font-family="Helvetica,sans-Serif" font-size="9.00">game.ts</text>
</a>
</g>
</g>
<!-- src/app/api/lib/errors/services/game.ts&#45;&gt;src/app/api/lib/errors/base.ts -->
<g id="edge15" class="edge">
<title>src/app/api/lib/errors/services/game.ts&#45;&gt;src/app/api/lib/errors/base.ts</title>
<path fill="none" stroke="#000000" stroke-width="2" stroke-opacity="0.200000" d="M603.71,-822.62C606.61,-820.96 609.37,-819.03 611.75,-816.81 632.9,-797 646.01,-765.27 652.58,-745.54"/>
<polygon fill="#000000" fill-opacity="0.200000" stroke="#000000" stroke-width="2" stroke-opacity="0.200000" points="654.51,-746.4 654.31,-740.04 650.5,-745.14 654.51,-746.4"/>
</g>
<!-- src/app/api/lib/errors/services/game.ts&#45;&gt;src/app/api/lib/errors/codes.ts -->
<g id="edge16" class="edge">
<title>src/app/api/lib/errors/services/game.ts&#45;&gt;src/app/api/lib/errors/codes.ts</title>
<path fill="none" stroke="#000000" stroke-width="2" stroke-opacity="0.200000" d="M603.6,-829.66C642.67,-825.58 717.57,-814.3 773.75,-784.81 783.05,-779.92 791.9,-772.32 798.81,-765.45"/>
<polygon fill="#000000" fill-opacity="0.200000" stroke="#000000" stroke-width="2" stroke-opacity="0.200000" points="800.3,-766.93 802.93,-761.14 797.26,-764.02 800.3,-766.93"/>
</g>
<!-- src/app/api/lib/errors/services/game.ts&#45;&gt;src/app/api/lib/errors/messages.ts -->
<g id="edge17" class="edge">
<title>src/app/api/lib/errors/services/game.ts&#45;&gt;src/app/api/lib/errors/messages.ts</title>
<path fill="none" stroke="#000000" stroke-width="2" stroke-opacity="0.200000" d="M603.86,-822.9C629.09,-813.91 667.71,-798.81 698.75,-780.81 706.74,-776.17 714.94,-770.17 721.85,-764.68"/>
<polygon fill="#000000" fill-opacity="0.200000" stroke="#000000" stroke-width="2" stroke-opacity="0.200000" points="723.12,-766.36 726.44,-760.94 720.46,-763.11 723.12,-766.36"/>
</g>
<!-- src/app/api/lib/errors/services/genius.ts -->
<g id="node15" class="node">
<title>src/app/api/lib/errors/services/genius.ts</title>
<g id="a_node15"><a xlink:href="src/app/api/lib/errors/services/genius.ts" xlink:title="genius.ts">
<path fill="#ddfeff" stroke="black" d="M597.46,-720.68C597.46,-720.68 555.29,-720.68 555.29,-720.68 552.33,-720.68 549.38,-717.72 549.38,-714.76 549.38,-714.76 549.38,-708.85 549.38,-708.85 549.38,-705.89 552.33,-702.93 555.29,-702.93 555.29,-702.93 597.46,-702.93 597.46,-702.93 600.42,-702.93 603.38,-705.89 603.38,-708.85 603.38,-708.85 603.38,-714.76 603.38,-714.76 603.38,-717.72 600.42,-720.68 597.46,-720.68"/>
<text text-anchor="start" x="558" y="-708.13" font-family="Helvetica,sans-Serif" font-size="9.00">genius.ts</text>
</a>
</g>
</g>
<!-- src/app/api/lib/errors/services/genius.ts&#45;&gt;src/app/api/lib/errors/base.ts -->
<g id="edge18" class="edge">
<title>src/app/api/lib/errors/services/genius.ts&#45;&gt;src/app/api/lib/errors/base.ts</title>
<path fill="none" stroke="#000000" stroke-width="2" stroke-opacity="0.200000" d="M603.69,-717.05C609.8,-718.26 616.39,-719.57 622.8,-720.85"/>
<polygon fill="#000000" fill-opacity="0.200000" stroke="#000000" stroke-width="2" stroke-opacity="0.200000" points="622.11,-722.85 628.4,-721.96 622.93,-718.73 622.11,-722.85"/>
</g>
<!-- src/app/api/lib/errors/services/guess.ts -->
<g id="node16" class="node">
<title>src/app/api/lib/errors/services/guess.ts</title>
<g id="a_node16"><a xlink:href="src/app/api/lib/errors/services/guess.ts" xlink:title="guess.ts">
<path fill="#ddfeff" stroke="black" d="M597.46,-780.68C597.46,-780.68 555.29,-780.68 555.29,-780.68 552.33,-780.68 549.38,-777.72 549.38,-774.76 549.38,-774.76 549.38,-768.85 549.38,-768.85 549.38,-765.89 552.33,-762.93 555.29,-762.93 555.29,-762.93 597.46,-762.93 597.46,-762.93 600.42,-762.93 603.38,-765.89 603.38,-768.85 603.38,-768.85 603.38,-774.76 603.38,-774.76 603.38,-777.72 600.42,-780.68 597.46,-780.68"/>
<text text-anchor="start" x="559.5" y="-768.13" font-family="Helvetica,sans-Serif" font-size="9.00">guess.ts</text>
</a>
</g>
</g>
<!-- src/app/api/lib/errors/services/guess.ts&#45;&gt;src/app/api/lib/errors/base.ts -->
<g id="edge19" class="edge">
<title>src/app/api/lib/errors/services/guess.ts&#45;&gt;src/app/api/lib/errors/base.ts</title>
<path fill="none" stroke="#000000" stroke-width="2" stroke-opacity="0.200000" d="M601.17,-762.57C604.81,-760.83 608.45,-758.9 611.75,-756.81 615.74,-754.28 615.91,-752.56 619.75,-749.81 623.78,-746.92 628.21,-744.08 632.58,-741.45"/>
<polygon fill="#000000" fill-opacity="0.200000" stroke="#000000" stroke-width="2" stroke-opacity="0.200000" points="633.53,-743.33 637.67,-738.5 631.42,-739.7 633.53,-743.33"/>
</g>
<!-- src/app/api/lib/errors/services/guess.ts&#45;&gt;src/app/api/lib/errors/codes.ts -->
<g id="edge20" class="edge">
<title>src/app/api/lib/errors/services/guess.ts&#45;&gt;src/app/api/lib/errors/codes.ts</title>
<path fill="none" stroke="#000000" stroke-width="2" stroke-opacity="0.200000" d="M603.75,-773.6C641.75,-775.58 713.92,-777.02 773.75,-764.81 777.17,-764.11 780.68,-763.14 784.13,-762.03"/>
<polygon fill="#000000" fill-opacity="0.200000" stroke="#000000" stroke-width="2" stroke-opacity="0.200000" points="784.69,-764.07 789.64,-760.07 783.28,-760.11 784.69,-764.07"/>
</g>
<!-- src/app/api/lib/errors/services/guess.ts&#45;&gt;src/app/api/lib/errors/messages.ts -->
<g id="edge21" class="edge">
<title>src/app/api/lib/errors/services/guess.ts&#45;&gt;src/app/api/lib/errors/messages.ts</title>
<path fill="none" stroke="#000000" stroke-width="2" stroke-opacity="0.200000" d="M603.74,-768.22C629.16,-764.77 668,-759.49 697.6,-755.47"/>
<polygon fill="#000000" fill-opacity="0.200000" stroke="#000000" stroke-width="2" stroke-opacity="0.200000" points="697.8,-757.56 703.46,-754.67 697.23,-753.4 697.8,-757.56"/>
</g>
<!-- src/app/api/lib/errors/services/lyrics.ts -->
<g id="node17" class="node">
<title>src/app/api/lib/errors/services/lyrics.ts</title>
<g id="a_node17"><a xlink:href="src/app/api/lib/errors/services/lyrics.ts" xlink:title="lyrics.ts">
<path fill="#ddfeff" stroke="black" d="M597.46,-690.68C597.46,-690.68 555.29,-690.68 555.29,-690.68 552.33,-690.68 549.38,-687.72 549.38,-684.76 549.38,-684.76 549.38,-678.85 549.38,-678.85 549.38,-675.89 552.33,-672.93 555.29,-672.93 555.29,-672.93 597.46,-672.93 597.46,-672.93 600.42,-672.93 603.38,-675.89 603.38,-678.85 603.38,-678.85 603.38,-684.76 603.38,-684.76 603.38,-687.72 600.42,-690.68 597.46,-690.68"/>
<text text-anchor="start" x="561.38" y="-678.13" font-family="Helvetica,sans-Serif" font-size="9.00">lyrics.ts</text>
</a>
</g>
</g>
<!-- src/app/api/lib/errors/services/lyrics.ts&#45;&gt;src/app/api/lib/errors/base.ts -->
<g id="edge22" class="edge">
<title>src/app/api/lib/errors/services/lyrics.ts&#45;&gt;src/app/api/lib/errors/base.ts</title>
<path fill="none" stroke="#000000" stroke-width="2" stroke-opacity="0.200000" d="M601.66,-691.03C605.16,-692.75 608.63,-694.68 611.75,-696.81 615.9,-699.64 615.79,-701.7 619.75,-704.81 623.87,-708.04 628.48,-711.17 633.03,-714.04"/>
<polygon fill="#000000" fill-opacity="0.200000" stroke="#000000" stroke-width="2" stroke-opacity="0.200000" points="631.71,-715.69 637.93,-717 633.89,-712.1 631.71,-715.69"/>
</g>
<!-- src/app/api/lib/errors/services/lyrics.ts&#45;&gt;src/app/api/lib/errors/codes.ts -->
<g id="edge23" class="edge">
<title>src/app/api/lib/errors/services/lyrics.ts&#45;&gt;src/app/api/lib/errors/codes.ts</title>
<path fill="none" stroke="#000000" stroke-width="2" stroke-opacity="0.200000" d="M603.87,-680.41C628.77,-679.78 666.87,-680.58 698.75,-688.81 734.37,-698 771.1,-720.42 792.92,-735.36"/>
<polygon fill="#000000" fill-opacity="0.200000" stroke="#000000" stroke-width="2" stroke-opacity="0.200000" points="791.66,-737.04 797.78,-738.76 794.07,-733.6 791.66,-737.04"/>
</g>
<!-- src/app/api/lib/errors/services/lyrics.ts&#45;&gt;src/app/api/lib/errors/messages.ts -->
<g id="edge24" class="edge">
<title>src/app/api/lib/errors/services/lyrics.ts&#45;&gt;src/app/api/lib/errors/messages.ts</title>
<path fill="none" stroke="#000000" stroke-width="2" stroke-opacity="0.200000" d="M603.76,-686.98C634.3,-693.23 682.48,-704.02 698.75,-712.81 708.76,-718.21 718.24,-726.63 725.52,-734.07"/>
<polygon fill="#000000" fill-opacity="0.200000" stroke="#000000" stroke-width="2" stroke-opacity="0.200000" points="723.83,-735.34 729.46,-738.3 726.9,-732.48 723.83,-735.34"/>
</g>
<!-- src/app/api/lib/errors/services/song.ts -->
<g id="node18" class="node">
<title>src/app/api/lib/errors/services/song.ts</title>
<g id="a_node18"><a xlink:href="src/app/api/lib/errors/services/song.ts" xlink:title="song.ts">
<path fill="#ddfeff" stroke="black" d="M597.46,-810.68C597.46,-810.68 555.29,-810.68 555.29,-810.68 552.33,-810.68 549.38,-807.72 549.38,-804.76 549.38,-804.76 549.38,-798.85 549.38,-798.85 549.38,-795.89 552.33,-792.93 555.29,-792.93 555.29,-792.93 597.46,-792.93 597.46,-792.93 600.42,-792.93 603.38,-795.89 603.38,-798.85 603.38,-798.85 603.38,-804.76 603.38,-804.76 603.38,-807.72 600.42,-810.68 597.46,-810.68"/>
<text text-anchor="start" x="561.75" y="-798.13" font-family="Helvetica,sans-Serif" font-size="9.00">song.ts</text>
</a>
</g>
</g>
<!-- src/app/api/lib/errors/services/song.ts&#45;&gt;src/app/api/lib/errors/base.ts -->
<g id="edge25" class="edge">
<title>src/app/api/lib/errors/services/song.ts&#45;&gt;src/app/api/lib/errors/base.ts</title>
<path fill="none" stroke="#000000" stroke-width="2" stroke-opacity="0.200000" d="M602.62,-792.55C605.84,-790.88 608.97,-788.96 611.75,-786.81 626.87,-775.07 639.83,-757.29 648.11,-744.31"/>
<polygon fill="#000000" fill-opacity="0.200000" stroke="#000000" stroke-width="2" stroke-opacity="0.200000" points="649.69,-745.74 651.04,-739.53 646.11,-743.54 649.69,-745.74"/>
</g>
<!-- src/app/api/lib/errors/services/song.ts&#45;&gt;src/app/api/lib/errors/codes.ts -->
<g id="edge26" class="edge">
<title>src/app/api/lib/errors/services/song.ts&#45;&gt;src/app/api/lib/errors/codes.ts</title>
<path fill="none" stroke="#000000" stroke-width="2" stroke-opacity="0.200000" d="M603.56,-801.12C641.94,-799.42 715.26,-793.48 773.75,-772.81 780.17,-770.54 786.71,-767.17 792.56,-763.71"/>
<polygon fill="#000000" fill-opacity="0.200000" stroke="#000000" stroke-width="2" stroke-opacity="0.200000" points="793.49,-765.6 797.45,-760.63 791.26,-762.04 793.49,-765.6"/>
</g>
<!-- src/app/api/lib/errors/services/song.ts&#45;&gt;src/app/api/lib/errors/messages.ts -->
<g id="edge27" class="edge">
<title>src/app/api/lib/errors/services/song.ts&#45;&gt;src/app/api/lib/errors/messages.ts</title>
<path fill="none" stroke="#000000" stroke-width="2" stroke-opacity="0.200000" d="M603.56,-794.31C628.24,-787.13 666.19,-775.79 698.75,-764.81 701.3,-763.95 703.92,-763.04 706.56,-762.1"/>
<polygon fill="#000000" fill-opacity="0.200000" stroke="#000000" stroke-width="2" stroke-opacity="0.200000" points="707.14,-764.12 712.07,-760.11 705.71,-760.17 707.14,-764.12"/>
</g>
<!-- src/app/api/lib/errors/services/spotify.ts -->
<g id="node19" class="node">
<title>src/app/api/lib/errors/services/spotify.ts</title>
<g id="a_node19"><a xlink:href="src/app/api/lib/errors/services/spotify.ts" xlink:title="spotify.ts">
<path fill="#ddfeff" stroke="black" d="M597.46,-750.68C597.46,-750.68 555.29,-750.68 555.29,-750.68 552.33,-750.68 549.38,-747.72 549.38,-744.76 549.38,-744.76 549.38,-738.85 549.38,-738.85 549.38,-735.89 552.33,-732.93 555.29,-732.93 555.29,-732.93 597.46,-732.93 597.46,-732.93 600.42,-732.93 603.38,-735.89 603.38,-738.85 603.38,-738.85 603.38,-744.76 603.38,-744.76 603.38,-747.72 600.42,-750.68 597.46,-750.68"/>
<text text-anchor="start" x="558.75" y="-738.13" font-family="Helvetica,sans-Serif" font-size="9.00">spotify.ts</text>
</a>
</g>
</g>
<!-- src/app/api/lib/errors/services/spotify.ts&#45;&gt;src/app/api/lib/errors/base.ts -->
<g id="edge28" class="edge">
<title>src/app/api/lib/errors/services/spotify.ts&#45;&gt;src/app/api/lib/errors/base.ts</title>
<path fill="none" stroke="#000000" stroke-width="2" stroke-opacity="0.200000" d="M603.69,-737.22C609.8,-736.16 616.39,-735.01 622.8,-733.89"/>
<polygon fill="#000000" fill-opacity="0.200000" stroke="#000000" stroke-width="2" stroke-opacity="0.200000" points="622.84,-736.02 628.39,-732.92 622.12,-731.88 622.84,-736.02"/>
</g>
<!-- src/app/api/lib/services/game&#45;state.ts -->
<g id="node20" class="node">
<title>src/app/api/lib/services/game&#45;state.ts</title>
<g id="a_node20"><a xlink:href="src/app/api/lib/services/game-state.ts" xlink:title="game&#45;state.ts">
<path fill="#ddfeff" stroke="black" d="M179.83,-458.68C179.83,-458.68 120.92,-458.68 120.92,-458.68 117.96,-458.68 115,-455.72 115,-452.76 115,-452.76 115,-446.85 115,-446.85 115,-443.89 117.96,-440.93 120.92,-440.93 120.92,-440.93 179.83,-440.93 179.83,-440.93 182.79,-440.93 185.75,-443.89 185.75,-446.85 185.75,-446.85 185.75,-452.76 185.75,-452.76 185.75,-455.72 182.79,-458.68 179.83,-458.68"/>
<text text-anchor="start" x="123" y="-446.13" font-family="Helvetica,sans-Serif" font-size="9.00">game&#45;state.ts</text>
</a>
</g>
</g>
<!-- src/app/api/lib/services/game&#45;state.ts&#45;&gt;node_modules/.pnpm -->
<g id="edge35" class="edge">
<title>src/app/api/lib/services/game&#45;state.ts&#45;&gt;node_modules/.pnpm</title>
<path fill="none" stroke="#000000" stroke-opacity="0.200000" d="M152.37,-440.69C159.26,-379.56 202.38,-31.81 291.75,-31.81 291.75,-31.81 291.75,-31.81 478.5,-31.81 538.26,-31.81 565.72,-11.69 611.75,-49.81 648.73,-80.43 656.15,-141.68 657.53,-171.18"/>
<polygon fill="#000000" fill-opacity="0.200000" stroke="#000000" stroke-opacity="0.200000" points="655.42,-171.16 657.72,-177.09 659.62,-171.03 655.42,-171.16"/>
</g>
<!-- src/app/api/lib/services/game&#45;state.ts&#45;&gt;src/app/api/lib/db.ts -->
<g id="edge30" class="edge">
<title>src/app/api/lib/services/game&#45;state.ts&#45;&gt;src/app/api/lib/db.ts</title>
<path fill="none" stroke="#000000" stroke-width="2" stroke-opacity="0.200000" d="M181.99,-440.59C183.38,-439.47 184.65,-438.21 185.75,-436.81 216.32,-397.66 163.4,-360.69 198.75,-325.81 217.67,-307.14 292.18,-305.6 337.22,-306.48"/>
<polygon fill="#000000" fill-opacity="0.200000" stroke="#000000" stroke-width="2" stroke-opacity="0.200000" points="337,-308.58 343.05,-306.62 337.1,-304.38 337,-308.58"/>
</g>
<!-- src/app/api/lib/services/game.ts -->
<g id="node21" class="node">
<title>src/app/api/lib/services/game.ts</title>
<g id="a_node21"><a xlink:href="src/app/api/lib/services/game.ts" xlink:title="game.ts">
<path fill="#ddfeff" stroke="black" d="M246.83,-458.68C246.83,-458.68 204.67,-458.68 204.67,-458.68 201.71,-458.68 198.75,-455.72 198.75,-452.76 198.75,-452.76 198.75,-446.85 198.75,-446.85 198.75,-443.89 201.71,-440.93 204.67,-440.93 204.67,-440.93 246.83,-440.93 246.83,-440.93 249.79,-440.93 252.75,-443.89 252.75,-446.85 252.75,-446.85 252.75,-452.76 252.75,-452.76 252.75,-455.72 249.79,-458.68 246.83,-458.68"/>
<text text-anchor="start" x="209.62" y="-446.13" font-family="Helvetica,sans-Serif" font-size="9.00">game.ts</text>
</a>
</g>
</g>
<!-- src/app/api/lib/services/game&#45;state.ts&#45;&gt;src/app/api/lib/services/game.ts -->
<g id="edge29" class="edge">
<title>src/app/api/lib/services/game&#45;state.ts&#45;&gt;src/app/api/lib/services/game.ts</title>
<path fill="none" stroke="#000000" stroke-width="2" stroke-opacity="0.200000" d="M185.91,-449.81C187.08,-449.81 188.26,-449.81 189.43,-449.81"/>
<polygon fill="#000000" fill-opacity="0.200000" stroke="#000000" stroke-width="2" stroke-opacity="0.200000" points="189.27,-451.91 195.27,-449.81 189.27,-447.71 189.27,-451.91"/>
</g>
<!-- src/app/api/lib/types/game.ts -->
<g id="node22" class="node">
<title>src/app/api/lib/types/game.ts</title>
<g id="a_node22"><a xlink:href="src/app/api/lib/types/game.ts" xlink:title="game.ts">
<path fill="#ddfeff" stroke="black" d="M597.46,-380.68C597.46,-380.68 555.29,-380.68 555.29,-380.68 552.33,-380.68 549.38,-377.72 549.38,-374.76 549.38,-374.76 549.38,-368.85 549.38,-368.85 549.38,-365.89 552.33,-362.93 555.29,-362.93 555.29,-362.93 597.46,-362.93 597.46,-362.93 600.42,-362.93 603.38,-365.89 603.38,-368.85 603.38,-368.85 603.38,-374.76 603.38,-374.76 603.38,-377.72 600.42,-380.68 597.46,-380.68"/>
<text text-anchor="start" x="560.25" y="-368.13" font-family="Helvetica,sans-Serif" font-size="9.00">game.ts</text>
</a>
</g>
</g>
<!-- src/app/api/lib/services/game&#45;state.ts&#45;&gt;src/app/api/lib/types/game.ts -->
<g id="edge31" class="edge">
<title>src/app/api/lib/services/game&#45;state.ts&#45;&gt;src/app/api/lib/types/game.ts</title>
<path fill="none" stroke="#000000" stroke-opacity="0.200000" d="M182.02,-440.61C183.4,-439.49 184.66,-438.22 185.75,-436.81 203.67,-413.41 177.97,-325.71 198.75,-304.81 301.02,-201.92 424.53,-210.16 525,-314.81 538.16,-328.51 520.62,-342.39 533,-356.81 535.61,-359.84 538.87,-362.26 542.41,-364.19"/>
<polygon fill="none" stroke="#000000" stroke-opacity="0.200000" points="541.32,-366 547.65,-366.55 543.04,-362.17 541.32,-366"/>
</g>
<!-- src/app/api/lib/types/game&#45;state.ts -->
<g id="node23" class="node">
<title>src/app/api/lib/types/game&#45;state.ts</title>
<g id="a_node23"><a xlink:href="src/app/api/lib/types/game-state.ts" xlink:title="game&#45;state.ts">
<path fill="#ddfeff" stroke="black" d="M605.83,-350.68C605.83,-350.68 546.92,-350.68 546.92,-350.68 543.96,-350.68 541,-347.72 541,-344.76 541,-344.76 541,-338.85 541,-338.85 541,-335.89 543.96,-332.93 546.92,-332.93 546.92,-332.93 605.83,-332.93 605.83,-332.93 608.79,-332.93 611.75,-335.89 611.75,-338.85 611.75,-338.85 611.75,-344.76 611.75,-344.76 611.75,-347.72 608.79,-350.68 605.83,-350.68"/>
<text text-anchor="start" x="549" y="-338.13" font-family="Helvetica,sans-Serif" font-size="9.00">game&#45;state.ts</text>
</a>
</g>
</g>
<!-- src/app/api/lib/services/game&#45;state.ts&#45;&gt;src/app/api/lib/types/game&#45;state.ts -->
<g id="edge32" class="edge">
<title>src/app/api/lib/services/game&#45;state.ts&#45;&gt;src/app/api/lib/types/game&#45;state.ts</title>
<path fill="none" stroke="#000000" stroke-opacity="0.200000" d="M179.3,-440.48C181.54,-439.37 183.73,-438.14 185.75,-436.81 228.53,-408.61 221.81,-380.15 265.75,-353.81 292.3,-337.89 302.38,-340.77 332.75,-334.81 371.92,-327.11 387.04,-344.08 422,-324.81 426.98,-322.06 424.87,-317.27 430,-314.81 468.06,-296.52 488.48,-293.61 525,-314.81 531.2,-318.4 527.4,-324.33 533,-328.81 533.6,-329.29 534.22,-329.75 534.85,-330.2"/>
<polygon fill="none" stroke="#000000" stroke-opacity="0.200000" points="533.37,-331.76 539.61,-333 535.51,-328.14 533.37,-331.76"/>
</g>
<!-- src/app/api/lib/types/lyrics.ts -->
<g id="node24" class="node">
<title>src/app/api/lib/types/lyrics.ts</title>
<g id="a_node24"><a xlink:href="src/app/api/lib/types/lyrics.ts" xlink:title="lyrics.ts">
<path fill="#ddfeff" stroke="black" d="M679.83,-440.68C679.83,-440.68 637.67,-440.68 637.67,-440.68 634.71,-440.68 631.75,-437.72 631.75,-434.76 631.75,-434.76 631.75,-428.85 631.75,-428.85 631.75,-425.89 634.71,-422.93 637.67,-422.93 637.67,-422.93 679.83,-422.93 679.83,-422.93 682.79,-422.93 685.75,-425.89 685.75,-428.85 685.75,-428.85 685.75,-434.76 685.75,-434.76 685.75,-437.72 682.79,-440.68 679.83,-440.68"/>
<text text-anchor="start" x="643.75" y="-428.13" font-family="Helvetica,sans-Serif" font-size="9.00">lyrics.ts</text>
</a>
</g>
</g>
<!-- src/app/api/lib/services/game&#45;state.ts&#45;&gt;src/app/api/lib/types/lyrics.ts -->
<g id="edge33" class="edge">
<title>src/app/api/lib/services/game&#45;state.ts&#45;&gt;src/app/api/lib/types/lyrics.ts</title>
<path fill="none" stroke="#000000" stroke-opacity="0.200000" d="M182.09,-458.95C183.45,-460.09 184.69,-461.37 185.75,-462.81 214.26,-501.53 164.03,-645.54 198.75,-678.81 211.84,-691.35 511.86,-695.29 525,-682.81 537.5,-670.93 524.1,-542.58 533,-527.81 554.03,-492.89 579.99,-506.36 611.75,-480.81 624.52,-470.53 637.12,-456.79 645.9,-446.47"/>
<polygon fill="none" stroke="#000000" stroke-opacity="0.200000" points="647.39,-447.95 649.62,-442 644.17,-445.26 647.39,-447.95"/>
</g>
<!-- src/app/api/lib/validation.ts -->
<g id="node25" class="node">
<title>src/app/api/lib/validation.ts</title>
<g id="a_node25"><a xlink:href="src/app/api/lib/validation.ts" xlink:title="validation.ts">
<path fill="#ddfeff" stroke="black" d="M503.96,-674.68C503.96,-674.68 451.04,-674.68 451.04,-674.68 448.08,-674.68 445.12,-671.72 445.12,-668.76 445.12,-668.76 445.12,-662.85 445.12,-662.85 445.12,-659.89 448.08,-656.93 451.04,-656.93 451.04,-656.93 503.96,-656.93 503.96,-656.93 506.92,-656.93 509.88,-659.89 509.88,-662.85 509.88,-662.85 509.88,-668.76 509.88,-668.76 509.88,-671.72 506.92,-674.68 503.96,-674.68"/>
<text text-anchor="start" x="453.12" y="-662.13" font-family="Helvetica,sans-Serif" font-size="9.00">validation.ts</text>
</a>
</g>
</g>
<!-- src/app/api/lib/services/game&#45;state.ts&#45;&gt;src/app/api/lib/validation.ts -->
<g id="edge34" class="edge">
<title>src/app/api/lib/services/game&#45;state.ts&#45;&gt;src/app/api/lib/validation.ts</title>
<path fill="none" stroke="#000000" stroke-width="2" stroke-opacity="0.200000" d="M179.78,-459.12C181.88,-460.23 183.89,-461.46 185.75,-462.81 270.18,-524.08 242.02,-594.32 332.75,-645.81 364.13,-663.61 405.38,-667.76 435.64,-667.95"/>
<polygon fill="#000000" fill-opacity="0.200000" stroke="#000000" stroke-width="2" stroke-opacity="0.200000" points="435.64,-670.05 441.63,-667.91 435.61,-665.85 435.64,-670.05"/>
</g>
<!-- src/app/api/lib/services/game.ts&#45;&gt;node_modules/.pnpm -->
<g id="edge41" class="edge">
<title>src/app/api/lib/services/game.ts&#45;&gt;node_modules/.pnpm</title>
<path fill="none" stroke="#000000" stroke-opacity="0.200000" d="M228.07,-440.5C236.76,-381.14 287.98,-57.81 372.38,-57.81 372.38,-57.81 372.38,-57.81 478.5,-57.81 538.26,-57.81 564.46,-39.28 611.75,-75.81 642.22,-99.34 652.64,-146.54 656.1,-171.49"/>
<polygon fill="#000000" fill-opacity="0.200000" stroke="#000000" stroke-opacity="0.200000" points="653.99,-171.55 656.81,-177.24 658.16,-171.03 653.99,-171.55"/>
</g>
<!-- src/app/api/lib/services/game.ts&#45;&gt;src/app/api/lib/db.ts -->
<g id="edge36" class="edge">
<title>src/app/api/lib/services/game.ts&#45;&gt;src/app/api/lib/db.ts</title>
<path fill="none" stroke="#000000" stroke-width="2" stroke-opacity="0.200000" d="M248.98,-440.75C250.39,-439.58 251.68,-438.27 252.75,-436.81 274.79,-406.66 242.87,-383.32 265.75,-353.81 283.13,-331.38 313.62,-319.71 337.56,-313.75"/>
<polygon fill="#000000" fill-opacity="0.200000" stroke="#000000" stroke-width="2" stroke-opacity="0.200000" points="337.71,-315.87 343.09,-312.48 336.77,-311.77 337.71,-315.87"/>
</g>
<!-- src/app/api/lib/services/game.ts&#45;&gt;src/app/api/lib/errors/services/game.ts -->
<g id="edge38" class="edge">
<title>src/app/api/lib/services/game.ts&#45;&gt;src/app/api/lib/errors/services/game.ts</title>
<path fill="none" stroke="#000000" stroke-width="2" stroke-opacity="0.200000" d="M249.57,-459.16C250.78,-460.25 251.85,-461.46 252.75,-462.81 275.98,-497.65 244.15,-614.93 265.75,-650.81 328,-754.18 473.44,-804.77 540.45,-823.25"/>
<polygon fill="#000000" fill-opacity="0.200000" stroke="#000000" stroke-width="2" stroke-opacity="0.200000" points="539.72,-825.23 546.06,-824.76 540.81,-821.17 539.72,-825.23"/>
</g>
<!-- src/app/api/lib/services/game.ts&#45;&gt;src/app/api/lib/types/game.ts -->
<g id="edge39" class="edge">
<title>src/app/api/lib/services/game.ts&#45;&gt;src/app/api/lib/types/game.ts</title>
<path fill="none" stroke="#000000" stroke-opacity="0.200000" d="M233.22,-440.69C248.16,-420.4 287.28,-371.55 332.75,-348.81 368.72,-330.81 383.16,-344.25 422,-333.81 425.67,-332.82 426.26,-331.48 430,-330.81 471.54,-323.27 491.04,-305.72 525,-330.81 534.73,-337.99 524.63,-348.08 533,-356.81 535.63,-359.55 538.8,-361.8 542.2,-363.63"/>
<polygon fill="none" stroke="#000000" stroke-opacity="0.200000" points="541.24,-365.5 547.58,-366.05 542.97,-361.67 541.24,-365.5"/>
</g>
<!-- src/app/api/lib/services/game.ts&#45;&gt;src/app/api/lib/validation.ts -->
<g id="edge40" class="edge">
<title>src/app/api/lib/services/game.ts&#45;&gt;src/app/api/lib/validation.ts</title>
<path fill="none" stroke="#000000" stroke-width="2" stroke-opacity="0.200000" d="M248.28,-459.05C249.89,-460.19 251.41,-461.44 252.75,-462.81 310.88,-522.2 267.85,-579.9 332.75,-631.81 364.5,-657.19 382.48,-642.3 422,-651.81 426.63,-652.92 431.47,-654.12 436.28,-655.33"/>
<polygon fill="#000000" fill-opacity="0.200000" stroke="#000000" stroke-width="2" stroke-opacity="0.200000" points="435.57,-657.31 441.91,-656.75 436.61,-653.24 435.57,-657.31"/>
</g>
<!-- src/app/api/lib/services/song.ts -->
<g id="node26" class="node">
<title>src/app/api/lib/services/song.ts</title>
<g id="a_node26"><a xlink:href="src/app/api/lib/services/song.ts" xlink:title="song.ts">
<path fill="#ddfeff" stroke="black" d="M313.83,-458.68C313.83,-458.68 271.67,-458.68 271.67,-458.68 268.71,-458.68 265.75,-455.72 265.75,-452.76 265.75,-452.76 265.75,-446.85 265.75,-446.85 265.75,-443.89 268.71,-440.93 271.67,-440.93 271.67,-440.93 313.83,-440.93 313.83,-440.93 316.79,-440.93 319.75,-443.89 319.75,-446.85 319.75,-446.85 319.75,-452.76 319.75,-452.76 319.75,-455.72 316.79,-458.68 313.83,-458.68"/>
<text text-anchor="start" x="278.12" y="-446.13" font-family="Helvetica,sans-Serif" font-size="9.00">song.ts</text>
</a>
</g>
</g>
<!-- src/app/api/lib/services/game.ts&#45;&gt;src/app/api/lib/services/song.ts -->
<g id="edge37" class="edge">
<title>src/app/api/lib/services/game.ts&#45;&gt;src/app/api/lib/services/song.ts</title>
<path fill="none" stroke="#000000" stroke-width="2" stroke-opacity="0.200000" d="M253.19,-449.81C254.33,-449.81 255.49,-449.81 256.65,-449.81"/>
<polygon fill="#000000" fill-opacity="0.200000" stroke="#000000" stroke-width="2" stroke-opacity="0.200000" points="256.52,-451.91 262.52,-449.81 256.52,-447.71 256.52,-451.91"/>
</g>
<!-- src/app/api/lib/types/game.ts&#45;&gt;node_modules/.pnpm -->
<g id="edge74" class="edge">
<title>src/app/api/lib/types/game.ts&#45;&gt;node_modules/.pnpm</title>
<path fill="none" stroke="#000000" stroke-opacity="0.200000" d="M603.62,-363.58C606.68,-361.75 609.51,-359.51 611.75,-356.81 621.93,-344.52 615.79,-337.27 619.75,-321.81 630.72,-278.92 645.43,-228.85 652.93,-203.8"/>
<polygon fill="none" stroke="#000000" stroke-opacity="0.200000" points="654.86,-204.66 654.57,-198.31 650.84,-203.45 654.86,-204.66"/>
</g>
<!-- src/app/api/lib/types/game&#45;state.ts&#45;&gt;node_modules/.pnpm -->
<g id="edge73" class="edge">
<title>src/app/api/lib/types/game&#45;state.ts&#45;&gt;node_modules/.pnpm</title>
<path fill="none" stroke="#000000" stroke-opacity="0.200000" d="M607.35,-332.54C608.94,-331.43 610.43,-330.19 611.75,-328.81 645.4,-293.57 654.43,-233.4 656.86,-204.4"/>
<polygon fill="none" stroke="#000000" stroke-opacity="0.200000" points="658.94,-204.73 657.28,-198.6 654.75,-204.43 658.94,-204.73"/>
</g>
<!-- src/app/api/lib/types/game&#45;state.ts&#45;&gt;src/app/api/lib/types/lyrics.ts -->
<g id="edge72" class="edge">
<title>src/app/api/lib/types/game&#45;state.ts&#45;&gt;src/app/api/lib/types/lyrics.ts</title>
<path fill="none" stroke="#000000" stroke-opacity="0.200000" d="M603.56,-351.16C606.49,-352.8 609.29,-354.67 611.75,-356.81 630.71,-373.3 644.29,-399.56 651.59,-416.23"/>
<polygon fill="none" stroke="#000000" stroke-opacity="0.200000" points="649.47,-416.62 653.74,-421.34 653.34,-414.99 649.47,-416.62"/>
</g>
<!-- src/app/api/lib/validation.ts&#45;&gt;node_modules/.pnpm -->
<g id="edge85" class="edge">
<title>src/app/api/lib/validation.ts&#45;&gt;node_modules/.pnpm</title>
<path fill="none" stroke="#000000" stroke-opacity="0.200000" d="M489.79,-656.45C501.1,-646.31 517.81,-628.97 525,-609.81 537.38,-576.82 514.49,-322.79 533,-292.81 553.84,-259.05 581.8,-276.81 611.75,-250.81 627.57,-237.07 641.07,-216.93 649.27,-203.14"/>
<polygon fill="#000000" fill-opacity="0.200000" stroke="#000000" stroke-opacity="0.200000" points="650.91,-204.5 652.1,-198.25 647.28,-202.39 650.91,-204.5"/>
</g>
<!-- src/app/api/lib/validation.ts&#45;&gt;src/app/api/lib/errors/base.ts -->
<g id="edge84" class="edge">
<title>src/app/api/lib/validation.ts&#45;&gt;src/app/api/lib/errors/base.ts</title>
<path fill="none" stroke="#000000" stroke-width="2" stroke-opacity="0.200000" d="M479.48,-674.82C483.6,-711.03 500.87,-845.13 533,-869.81 560.76,-891.12 583.44,-890.39 611.75,-869.81 651.46,-840.93 657.59,-777 658.09,-745.73"/>
<polygon fill="#000000" fill-opacity="0.200000" stroke="#000000" stroke-width="2" stroke-opacity="0.200000" points="660.19,-745.84 658.09,-739.84 655.99,-745.84 660.19,-745.84"/>
</g>
<!-- src/app/api/lib/services/song.ts&#45;&gt;node_modules/.pnpm -->
<g id="edge68" class="edge">
<title>src/app/api/lib/services/song.ts&#45;&gt;node_modules/.pnpm</title>
<path fill="none" stroke="#000000" stroke-opacity="0.200000" d="M293.64,-440.44C293.66,-392.26 300.92,-171.58 430,-94.81 464.71,-74.16 577.44,-73.5 611.75,-94.81 638.73,-111.56 650.37,-149.36 655,-171.26"/>
<polygon fill="none" stroke="#000000" stroke-opacity="0.200000" points="652.92,-171.57 656.12,-177.06 657.04,-170.77 652.92,-171.57"/>
</g>
<!-- src/app/api/lib/services/song.ts&#45;&gt;src/app/api/lib/db.ts -->
<g id="edge61" class="edge">
<title>src/app/api/lib/services/song.ts&#45;&gt;src/app/api/lib/db.ts</title>
<path fill="none" stroke="#000000" stroke-width="2" stroke-opacity="0.200000" d="M315.98,-440.75C317.39,-439.58 318.68,-438.27 319.75,-436.81 341.79,-406.66 317.08,-387.7 332.75,-353.81 338.18,-342.07 347.51,-331.01 355.75,-322.68"/>
<polygon fill="#000000" fill-opacity="0.200000" stroke="#000000" stroke-width="2" stroke-opacity="0.200000" points="356.73,-324.66 359.58,-318.98 353.81,-321.64 356.73,-324.66"/>
</g>
<!-- src/app/api/lib/services/song.ts&#45;&gt;src/app/api/lib/errors/services/spotify.ts -->
<g id="edge62" class="edge">
<title>src/app/api/lib/services/song.ts&#45;&gt;src/app/api/lib/errors/services/spotify.ts</title>
<path fill="none" stroke="#000000" stroke-width="2" stroke-opacity="0.200000" d="M316,-458.84C317.41,-460.01 318.69,-461.33 319.75,-462.81 343.87,-496.33 311.36,-519.48 332.75,-554.81 358.04,-596.56 389.84,-582.09 422,-618.81 426.98,-624.49 423.85,-629.42 430,-633.81 464.82,-658.6 495.61,-617.77 525,-648.81 536.98,-661.46 522.23,-713.11 533,-726.81 535.22,-729.62 538,-731.91 541.08,-733.77"/>
<polygon fill="#000000" fill-opacity="0.200000" stroke="#000000" stroke-width="2" stroke-opacity="0.200000" points="540.12,-735.64 546.44,-736.29 541.9,-731.84 540.12,-735.64"/>
</g>
<!-- src/app/api/lib/services/song.ts&#45;&gt;src/app/api/lib/validation.ts -->
<g id="edge67" class="edge">
<title>src/app/api/lib/services/song.ts&#45;&gt;src/app/api/lib/validation.ts</title>
<path fill="none" stroke="#000000" stroke-width="2" stroke-opacity="0.200000" d="M316.55,-459.18C317.76,-460.26 318.84,-461.47 319.75,-462.81 339.14,-491.42 310.04,-591.75 332.75,-617.81 359.46,-648.45 387.52,-616.27 422,-637.81 426.83,-640.82 425.41,-644.44 430,-647.81 432.45,-649.6 435.1,-651.24 437.85,-652.74"/>
<polygon fill="#000000" fill-opacity="0.200000" stroke="#000000" stroke-width="2" stroke-opacity="0.200000" points="436.74,-654.53 443.05,-655.26 438.57,-650.75 436.74,-654.53"/>
</g>
<!-- src/app/api/lib/services/genius.ts -->
<g id="node27" class="node">
<title>src/app/api/lib/services/genius.ts</title>
<g id="a_node27"><a xlink:href="src/app/api/lib/services/genius.ts" xlink:title="genius.ts">
<path fill="#ddfeff" stroke="black" d="M394.46,-548.68C394.46,-548.68 352.29,-548.68 352.29,-548.68 349.33,-548.68 346.38,-545.72 346.38,-542.76 346.38,-542.76 346.38,-536.85 346.38,-536.85 346.38,-533.89 349.33,-530.93 352.29,-530.93 352.29,-530.93 394.46,-530.93 394.46,-530.93 397.42,-530.93 400.38,-533.89 400.38,-536.85 400.38,-536.85 400.38,-542.76 400.38,-542.76 400.38,-545.72 397.42,-548.68 394.46,-548.68"/>
<text text-anchor="start" x="355" y="-536.13" font-family="Helvetica,sans-Serif" font-size="9.00">genius.ts</text>
</a>
</g>
</g>
<!-- src/app/api/lib/services/song.ts&#45;&gt;src/app/api/lib/services/genius.ts -->
<g id="edge57" class="edge">
<title>src/app/api/lib/services/song.ts&#45;&gt;src/app/api/lib/services/genius.ts</title>
<path fill="none" stroke="#000000" stroke-width="2" stroke-opacity="0.200000" d="M315.89,-458.92C317.33,-460.08 318.64,-461.37 319.75,-462.81 336.94,-485.1 314.44,-503.41 332.75,-524.81 334.41,-526.75 336.35,-528.43 338.45,-529.9"/>
<polygon fill="#000000" fill-opacity="0.200000" stroke="#000000" stroke-width="2" stroke-opacity="0.200000" points="337.21,-531.62 343.48,-532.66 339.23,-527.93 337.21,-531.62"/>
</g>
<!-- src/app/api/lib/types/genius.ts -->
<g id="node28" class="node">
<title>src/app/api/lib/types/genius.ts</title>
<g id="a_node28"><a xlink:href="src/app/api/lib/types/genius.ts" xlink:title="genius.ts">
<path fill="#ddfeff" stroke="black" d="M597.46,-440.68C597.46,-440.68 555.29,-440.68 555.29,-440.68 552.33,-440.68 549.38,-437.72 549.38,-434.76 549.38,-434.76 549.38,-428.85 549.38,-428.85 549.38,-425.89 552.33,-422.93 555.29,-422.93 555.29,-422.93 597.46,-422.93 597.46,-422.93 600.42,-422.93 603.38,-425.89 603.38,-428.85 603.38,-428.85 603.38,-434.76 603.38,-434.76 603.38,-437.72 600.42,-440.68 597.46,-440.68"/>
<text text-anchor="start" x="558" y="-428.13" font-family="Helvetica,sans-Serif" font-size="9.00">genius.ts</text>
</a>
</g>
</g>
<!-- src/app/api/lib/services/song.ts&#45;&gt;src/app/api/lib/types/genius.ts -->
<g id="edge63" class="edge">
<title>src/app/api/lib/services/song.ts&#45;&gt;src/app/api/lib/types/genius.ts</title>
<path fill="none" stroke="#000000" stroke-opacity="0.200000" d="M296.75,-440.65C301.9,-426.33 313.72,-398.66 332.75,-382.81 368.04,-353.41 384.75,-355.7 430,-347.81 471.59,-340.55 493.47,-319.72 525,-347.81 536.53,-358.07 523.38,-404.74 533,-416.81 535.55,-420.01 538.84,-422.53 542.46,-424.51"/>
<polygon fill="none" stroke="#000000" stroke-opacity="0.200000" points="541.51,-426.39 547.84,-426.92 543.22,-422.55 541.51,-426.39"/>
</g>
<!-- src/app/api/lib/services/masked&#45;lyrics.ts -->
<g id="node30" class="node">
<title>src/app/api/lib/services/masked&#45;lyrics.ts</title>
<g id="a_node30"><a xlink:href="src/app/api/lib/services/masked-lyrics.ts" xlink:title="masked&#45;lyrics.ts">
<path fill="#ddfeff" stroke="black" d="M408.08,-518.68C408.08,-518.68 338.67,-518.68 338.67,-518.68 335.71,-518.68 332.75,-515.72 332.75,-512.76 332.75,-512.76 332.75,-506.85 332.75,-506.85 332.75,-503.89 335.71,-500.93 338.67,-500.93 338.67,-500.93 408.08,-500.93 408.08,-500.93 411.04,-500.93 414,-503.89 414,-506.85 414,-506.85 414,-512.76 414,-512.76 414,-515.72 411.04,-518.68 408.08,-518.68"/>
<text text-anchor="start" x="340.75" y="-506.13" font-family="Helvetica,sans-Serif" font-size="9.00">masked&#45;lyrics.ts</text>
</a>
</g>
</g>
<!-- src/app/api/lib/services/song.ts&#45;&gt;src/app/api/lib/services/masked&#45;lyrics.ts -->
<g id="edge59" class="edge">
<title>src/app/api/lib/services/song.ts&#45;&gt;src/app/api/lib/services/masked&#45;lyrics.ts</title>
<path fill="none" stroke="#000000" stroke-width="2" stroke-opacity="0.200000" d="M299.6,-458.94C306.46,-468.98 318.68,-484.99 332.75,-494.81 333.53,-495.35 334.34,-495.88 335.17,-496.4"/>
<polygon fill="#000000" fill-opacity="0.200000" stroke="#000000" stroke-width="2" stroke-opacity="0.200000" points="334.02,-498.17 340.3,-499.15 336,-494.46 334.02,-498.17"/>
</g>
<!-- src/app/api/lib/services/lyrics.ts -->
<g id="node31" class="node">
<title>src/app/api/lib/services/lyrics.ts</title>
<g id="a_node31"><a xlink:href="src/app/api/lib/services/lyrics.ts" xlink:title="lyrics.ts">
<path fill="#ddfeff" stroke="black" d="M394.46,-458.68C394.46,-458.68 352.29,-458.68 352.29,-458.68 349.33,-458.68 346.38,-455.72 346.38,-452.76 346.38,-452.76 346.38,-446.85 346.38,-446.85 346.38,-443.89 349.33,-440.93 352.29,-440.93 352.29,-440.93 394.46,-440.93 394.46,-440.93 397.42,-440.93 400.38,-443.89 400.38,-446.85 400.38,-446.85 400.38,-452.76 400.38,-452.76 400.38,-455.72 397.42,-458.68 394.46,-458.68"/>
<text text-anchor="start" x="358.38" y="-446.13" font-family="Helvetica,sans-Serif" font-size="9.00">lyrics.ts</text>
</a>
</g>
</g>
<!-- src/app/api/lib/services/song.ts&#45;&gt;src/app/api/lib/services/lyrics.ts -->
<g id="edge58" class="edge">
<title>src/app/api/lib/services/song.ts&#45;&gt;src/app/api/lib/services/lyrics.ts</title>
<path fill="none" stroke="#000000" stroke-width="2" stroke-opacity="0.200000" d="M319.93,-449.81C325.44,-449.81 331.34,-449.81 337.12,-449.81"/>
<polygon fill="#000000" fill-opacity="0.200000" stroke="#000000" stroke-width="2" stroke-opacity="0.200000" points="337.01,-451.91 343.01,-449.81 337.01,-447.71 337.01,-451.91"/>
</g>
<!-- src/app/api/lib/services/spotify.ts -->
<g id="node32" class="node">
<title>src/app/api/lib/services/spotify.ts</title>
<g id="a_node32"><a xlink:href="src/app/api/lib/services/spotify.ts" xlink:title="spotify.ts">
<path fill="#ddfeff" stroke="black" d="M394.46,-488.68C394.46,-488.68 352.29,-488.68 352.29,-488.68 349.33,-488.68 346.38,-485.72 346.38,-482.76 346.38,-482.76 346.38,-476.85 346.38,-476.85 346.38,-473.89 349.33,-470.93 352.29,-470.93 352.29,-470.93 394.46,-470.93 394.46,-470.93 397.42,-470.93 400.38,-473.89 400.38,-476.85 400.38,-476.85 400.38,-482.76 400.38,-482.76 400.38,-485.72 397.42,-488.68 394.46,-488.68"/>
<text text-anchor="start" x="355.75" y="-476.13" font-family="Helvetica,sans-Serif" font-size="9.00">spotify.ts</text>
</a>
</g>
</g>
<!-- src/app/api/lib/services/song.ts&#45;&gt;src/app/api/lib/services/spotify.ts -->
<g id="edge60" class="edge">
<title>src/app/api/lib/services/song.ts&#45;&gt;src/app/api/lib/services/spotify.ts</title>
<path fill="none" stroke="#000000" stroke-width="2" stroke-opacity="0.200000" d="M317.67,-459.03C322.65,-460.94 327.87,-462.94 332.75,-464.81 334.85,-465.61 337.02,-466.44 339.21,-467.27"/>
<polygon fill="#000000" fill-opacity="0.200000" stroke="#000000" stroke-width="2" stroke-opacity="0.200000" points="338.45,-469.23 344.81,-469.39 339.94,-465.3 338.45,-469.23"/>
</g>
<!-- src/app/api/lib/types/spotify.ts -->
<g id="node33" class="node">
<title>src/app/api/lib/types/spotify.ts</title>
<g id="a_node33"><a xlink:href="src/app/api/lib/types/spotify.ts" xlink:title="spotify.ts">
<path fill="#ddfeff" stroke="black" d="M597.46,-410.68C597.46,-410.68 555.29,-410.68 555.29,-410.68 552.33,-410.68 549.38,-407.72 549.38,-404.76 549.38,-404.76 549.38,-398.85 549.38,-398.85 549.38,-395.89 552.33,-392.93 555.29,-392.93 555.29,-392.93 597.46,-392.93 597.46,-392.93 600.42,-392.93 603.38,-395.89 603.38,-398.85 603.38,-398.85 603.38,-404.76 603.38,-404.76 603.38,-407.72 600.42,-410.68 597.46,-410.68"/>
<text text-anchor="start" x="558.75" y="-398.13" font-family="Helvetica,sans-Serif" font-size="9.00">spotify.ts</text>
</a>
</g>
</g>
<!-- src/app/api/lib/services/song.ts&#45;&gt;src/app/api/lib/types/spotify.ts -->
<g id="edge64" class="edge">
<title>src/app/api/lib/services/song.ts&#45;&gt;src/app/api/lib/types/spotify.ts</title>
<path fill="none" stroke="#000000" stroke-opacity="0.200000" d="M296.75,-440.65C301.9,-426.33 313.72,-398.66 332.75,-382.81 368.04,-353.41 384.75,-355.7 430,-347.81 471.59,-340.55 492.28,-321.12 525,-347.81 538.71,-358.99 521.38,-373.46 533,-386.81 535.63,-389.82 538.9,-392.23 542.46,-394.16"/>
<polygon fill="none" stroke="#000000" stroke-opacity="0.200000" points="541.37,-395.97 547.7,-396.51 543.08,-392.14 541.37,-395.97"/>
</g>
<!-- src/app/api/lib/utils/genius.ts -->
<g id="node34" class="node">
<title>src/app/api/lib/utils/genius.ts</title>
<g id="a_node34"><a xlink:href="src/app/api/lib/utils/genius.ts" xlink:title="genius.ts">
<path fill="#ddfeff" stroke="black" d="M498.58,-376.68C498.58,-376.68 456.42,-376.68 456.42,-376.68 453.46,-376.68 450.5,-373.72 450.5,-370.76 450.5,-370.76 450.5,-364.85 450.5,-364.85 450.5,-361.89 453.46,-358.93 456.42,-358.93 456.42,-358.93 498.58,-358.93 498.58,-358.93 501.54,-358.93 504.5,-361.89 504.5,-364.85 504.5,-364.85 504.5,-370.76 504.5,-370.76 504.5,-373.72 501.54,-376.68 498.58,-376.68"/>
<text text-anchor="start" x="459.12" y="-364.13" font-family="Helvetica,sans-Serif" font-size="9.00">genius.ts</text>
</a>
</g>
</g>
<!-- src/app/api/lib/services/song.ts&#45;&gt;src/app/api/lib/utils/genius.ts -->
<g id="edge65" class="edge">
<title>src/app/api/lib/services/song.ts&#45;&gt;src/app/api/lib/utils/genius.ts</title>
<path fill="none" stroke="#000000" stroke-width="2" stroke-opacity="0.200000" d="M306.37,-440.51C313.83,-435.24 323.58,-428.74 332.75,-423.81 368.39,-404.64 412.03,-388.59 441.82,-378.66"/>
<polygon fill="#000000" fill-opacity="0.200000" stroke="#000000" stroke-width="2" stroke-opacity="0.200000" points="442.29,-380.71 447.33,-376.84 440.98,-376.72 442.29,-380.71"/>
</g>
<!-- src/app/api/lib/utils/spotify.ts -->
<g id="node35" class="node">
<title>src/app/api/lib/utils/spotify.ts</title>
<g id="a_node35"><a xlink:href="src/app/api/lib/utils/spotify.ts" xlink:title="spotify.ts">
<path fill="#ddfeff" stroke="black" d="M498.58,-436.68C498.58,-436.68 456.42,-436.68 456.42,-436.68 453.46,-436.68 450.5,-433.72 450.5,-430.76 450.5,-430.76 450.5,-424.85 450.5,-424.85 450.5,-421.89 453.46,-418.93 456.42,-418.93 456.42,-418.93 498.58,-418.93 498.58,-418.93 501.54,-418.93 504.5,-421.89 504.5,-424.85 504.5,-424.85 504.5,-430.76 504.5,-430.76 504.5,-433.72 501.54,-436.68 498.58,-436.68"/>
<text text-anchor="start" x="459.88" y="-424.13" font-family="Helvetica,sans-Serif" font-size="9.00">spotify.ts</text>
</a>
</g>
</g>
<!-- src/app/api/lib/services/song.ts&#45;&gt;src/app/api/lib/utils/spotify.ts -->
<g id="edge66" class="edge">
<title>src/app/api/lib/services/song.ts&#45;&gt;src/app/api/lib/utils/spotify.ts</title>
<path fill="none" stroke="#000000" stroke-width="2" stroke-opacity="0.200000" d="M314.43,-440.45C320.24,-438.21 326.65,-436.09 332.75,-434.81 369.31,-427.09 412.2,-426 441.56,-426.43"/>
<polygon fill="#000000" fill-opacity="0.200000" stroke="#000000" stroke-width="2" stroke-opacity="0.200000" points="441.15,-428.52 447.19,-426.54 441.23,-424.32 441.15,-428.52"/>
</g>
<!-- src/app/api/lib/services/genius.ts&#45;&gt;src/app/api/lib/clients/genius.ts -->
<g id="edge42" class="edge">
<title>src/app/api/lib/services/genius.ts&#45;&gt;src/app/api/lib/clients/genius.ts</title>
<path fill="none" stroke="#000000" stroke-width="2" stroke-opacity="0.200000" d="M400.67,-548.05C413.18,-551.97 428.31,-556.71 441.75,-560.92"/>
<polygon fill="#000000" fill-opacity="0.200000" stroke="#000000" stroke-width="2" stroke-opacity="0.200000" points="441.05,-562.9 447.4,-562.69 442.3,-558.89 441.05,-562.9"/>
</g>
<!-- src/app/api/lib/services/genius.ts&#45;&gt;src/app/api/lib/errors/services/genius.ts -->
<g id="edge43" class="edge">
<title>src/app/api/lib/services/genius.ts&#45;&gt;src/app/api/lib/errors/services/genius.ts</title>
<path fill="none" stroke="#000000" stroke-width="2" stroke-opacity="0.200000" d="M380.48,-548.97C394.19,-569.48 426.46,-617.46 430,-619.81 465.96,-643.65 495.55,-608.28 525,-639.81 542.46,-658.5 516.82,-677 533,-696.81 535.27,-699.58 538.09,-701.85 541.19,-703.69"/>
<polygon fill="#000000" fill-opacity="0.200000" stroke="#000000" stroke-width="2" stroke-opacity="0.200000" points="540.24,-705.57 546.56,-706.19 542.01,-701.76 540.24,-705.57"/>
</g>
<!-- src/app/api/lib/services/genius.ts&#45;&gt;src/app/api/lib/validation.ts -->
<g id="edge45" class="edge">
<title>src/app/api/lib/services/genius.ts&#45;&gt;src/app/api/lib/validation.ts</title>
<path fill="none" stroke="#000000" stroke-width="2" stroke-opacity="0.200000" d="M400.71,-541.33C408.67,-543.12 416.69,-546.52 422,-552.81 433.67,-566.62 420.81,-618.23 430,-633.81 434.32,-641.12 441.04,-647.15 448.04,-651.92"/>
<polygon fill="#000000" fill-opacity="0.200000" stroke="#000000" stroke-width="2" stroke-opacity="0.200000" points="446.87,-653.67 453.08,-655.03 449.07,-650.09 446.87,-653.67"/>
</g>
<!-- src/app/api/lib/services/genius.ts&#45;&gt;src/app/api/lib/types/genius.ts -->
<g id="edge44" class="edge">
<title>src/app/api/lib/services/genius.ts&#45;&gt;src/app/api/lib/types/genius.ts</title>
<path fill="none" stroke="#000000" stroke-opacity="0.200000" d="M400.66,-531.81C407.62,-529.61 415.12,-527.18 422,-524.81 425.59,-523.57 426.39,-522.98 430,-521.81 471.65,-508.33 488.52,-520 525,-495.81 543.8,-483.34 558.74,-461.55 567.32,-446.9"/>
<polygon fill="none" stroke="#000000" stroke-opacity="0.200000" points="568.94,-448.31 570.06,-442.05 565.28,-446.24 568.94,-448.31"/>
</g>
<!-- src/app/api/lib/services/guess.ts -->
<g id="node29" class="node">
<title>src/app/api/lib/services/guess.ts</title>
<g id="a_node29"><a xlink:href="src/app/api/lib/services/guess.ts" xlink:title="guess.ts">
<path fill="#ddfeff" stroke="black" d="M96.08,-540.68C96.08,-540.68 53.92,-540.68 53.92,-540.68 50.96,-540.68 48,-537.72 48,-534.76 48,-534.76 48,-528.85 48,-528.85 48,-525.89 50.96,-522.93 53.92,-522.93 53.92,-522.93 96.08,-522.93 96.08,-522.93 99.04,-522.93 102,-525.89 102,-528.85 102,-528.85 102,-534.76 102,-534.76 102,-537.72 99.04,-540.68 96.08,-540.68"/>
<text text-anchor="start" x="58.12" y="-528.13" font-family="Helvetica,sans-Serif" font-size="9.00">guess.ts</text>
</a>
</g>
</g>
<!-- src/app/api/lib/services/guess.ts&#45;&gt;node_modules/.pnpm -->
<g id="edge53" class="edge">
<title>src/app/api/lib/services/guess.ts&#45;&gt;node_modules/.pnpm</title>
<path fill="none" stroke="#000000" stroke-opacity="0.200000" d="M76.53,-522.68C80.84,-452.83 112.77,-5.81 224.75,-5.81 224.75,-5.81 224.75,-5.81 478.5,-5.81 538.26,-5.81 566.66,15.41 611.75,-23.81 655.54,-61.89 659.22,-137.97 658.56,-171.41"/>
<polygon fill="#000000" fill-opacity="0.200000" stroke="#000000" stroke-opacity="0.200000" points="656.47,-171.01 658.38,-177.07 660.67,-171.14 656.47,-171.01"/>
</g>
<!-- src/app/api/lib/services/guess.ts&#45;&gt;src/app/api/lib/db.ts -->
<g id="edge47" class="edge">
<title>src/app/api/lib/services/guess.ts&#45;&gt;src/app/api/lib/db.ts</title>
<path fill="none" stroke="#000000" stroke-width="2" stroke-opacity="0.200000" d="M77.58,-522.62C84.28,-486.79 114.06,-355.92 198.75,-306.81 241.48,-282.03 300.64,-289.38 337.7,-297.88"/>
<polygon fill="#000000" fill-opacity="0.200000" stroke="#000000" stroke-width="2" stroke-opacity="0.200000" points="336.9,-299.85 343.22,-299.22 337.88,-295.77 336.9,-299.85"/>
</g>
<!-- src/app/api/lib/services/guess.ts&#45;&gt;src/app/api/lib/errors/services/guess.ts -->
<g id="edge48" class="edge">
<title>src/app/api/lib/services/guess.ts&#45;&gt;src/app/api/lib/errors/services/guess.ts</title>
<path fill="none" stroke="#000000" stroke-width="2" stroke-opacity="0.200000" d="M76.47,-541C78.48,-576.72 87.56,-705.69 115,-733.81 149.87,-769.54 174.82,-757.81 224.75,-757.81 224.75,-757.81 224.75,-757.81 374.38,-757.81 432.63,-757.81 500.15,-763.73 540.23,-767.87"/>
<polygon fill="#000000" fill-opacity="0.200000" stroke="#000000" stroke-width="2" stroke-opacity="0.200000" points="539.88,-769.95 546.07,-768.49 540.32,-765.77 539.88,-769.95"/>
</g>
<!-- src/app/api/lib/services/guess.ts&#45;&gt;src/app/api/lib/services/game&#45;state.ts -->
<g id="edge49" class="edge">
<title>src/app/api/lib/services/guess.ts&#45;&gt;src/app/api/lib/services/game&#45;state.ts</title>
<path fill="none" stroke="#000000" stroke-width="2" stroke-opacity="0.200000" d="M84.13,-522.72C96.47,-508.93 120.1,-482.53 135.28,-465.56"/>
<polygon fill="#000000" fill-opacity="0.200000" stroke="#000000" stroke-width="2" stroke-opacity="0.200000" points="136.75,-467.06 139.19,-461.19 133.62,-464.26 136.75,-467.06"/>
</g>
<!-- src/app/api/lib/services/guess.ts&#45;&gt;src/app/api/lib/types/game.ts -->
<g id="edge50" class="edge">
<title>src/app/api/lib/services/guess.ts&#45;&gt;src/app/api/lib/types/game.ts</title>
<path fill="none" stroke="#000000" stroke-opacity="0.200000" d="M76.61,-540.79C79.01,-573.43 89.02,-684.99 115,-706.81 152.39,-738.21 175.92,-711.81 224.75,-711.81 224.75,-711.81 224.75,-711.81 293.75,-711.81 345.25,-711.81 489.9,-734.49 525,-696.81 536.74,-684.2 522.88,-400.75 533,-386.81 535.41,-383.49 538.61,-380.91 542.18,-378.89"/>
<polygon fill="none" stroke="#000000" stroke-opacity="0.200000" points="542.93,-380.85 547.53,-376.46 541.2,-377.03 542.93,-380.85"/>
</g>
<!-- src/app/api/lib/services/guess.ts&#45;&gt;src/app/api/lib/types/lyrics.ts -->
<g id="edge51" class="edge">
<title>src/app/api/lib/services/guess.ts&#45;&gt;src/app/api/lib/types/lyrics.ts</title>
<path fill="none" stroke="#000000" stroke-opacity="0.200000" d="M76.52,-540.87C78.65,-574.93 88,-694.52 115,-718.81 133.22,-735.2 200.24,-729.81 224.75,-729.81 224.75,-729.81 224.75,-729.81 374.38,-729.81 441.8,-729.81 479.1,-761.19 525,-711.81 538.18,-697.63 521.57,-553.42 533,-537.81 555.03,-507.71 583.05,-532.62 611.75,-508.81 631.57,-492.36 644.98,-465.03 651.99,-447.74"/>
<polygon fill="none" stroke="#000000" stroke-opacity="0.200000" points="653.84,-448.77 654.05,-442.42 649.93,-447.25 653.84,-448.77"/>
</g>
<!-- src/app/api/lib/services/guess.ts&#45;&gt;src/app/api/lib/validation.ts -->
<g id="edge52" class="edge">
<title>src/app/api/lib/services/guess.ts&#45;&gt;src/app/api/lib/validation.ts</title>
<path fill="none" stroke="#000000" stroke-width="2" stroke-opacity="0.200000" d="M78.95,-540.73C90.95,-575.21 139.62,-697.81 224.75,-697.81 224.75,-697.81 224.75,-697.81 293.75,-697.81 343.4,-697.81 399.51,-686.2 436.31,-676.97"/>
<polygon fill="#000000" fill-opacity="0.200000" stroke="#000000" stroke-width="2" stroke-opacity="0.200000" points="436.55,-679.08 441.84,-675.56 435.51,-675.01 436.55,-679.08"/>
</g>
<!-- src/app/api/lib/services/guess.ts&#45;&gt;src/app/api/lib/services/masked&#45;lyrics.ts -->
<g id="edge46" class="edge">
<title>src/app/api/lib/services/guess.ts&#45;&gt;src/app/api/lib/services/masked&#45;lyrics.ts</title>
<path fill="none" stroke="#000000" stroke-width="2" stroke-opacity="0.200000" d="M102.3,-529.85C152.03,-526.16 260.5,-518.11 323.8,-513.41"/>
<polygon fill="#000000" fill-opacity="0.200000" stroke="#000000" stroke-width="2" stroke-opacity="0.200000" points="323.58,-515.53 329.4,-513 323.26,-511.35 323.58,-515.53"/>
</g>
<!-- src/app/api/lib/services/masked&#45;lyrics.ts&#45;&gt;src/app/api/lib/types/lyrics.ts -->
<g id="edge56" class="edge">
<title>src/app/api/lib/services/masked&#45;lyrics.ts&#45;&gt;src/app/api/lib/types/lyrics.ts</title>
<path fill="none" stroke="#000000" stroke-opacity="0.200000" d="M414.4,-509.93C445.16,-509.12 488.43,-505.96 525,-495.81 566.64,-484.24 611.12,-460.08 636.57,-444.97"/>
<polygon fill="none" stroke="#000000" stroke-opacity="0.200000" points="637.56,-446.83 641.62,-441.94 635.4,-443.23 637.56,-446.83"/>
</g>
<!-- src/app/api/lib/services/lyrics.ts&#45;&gt;node_modules/.pnpm -->
<g id="edge55" class="edge">
<title>src/app/api/lib/services/lyrics.ts&#45;&gt;node_modules/.pnpm</title>
<path fill="none" stroke="#000000" stroke-opacity="0.200000" d="M400.47,-448.61C408.61,-446.86 416.81,-443.41 422,-436.81 431.79,-424.35 418.64,-162.85 430,-151.81 487.91,-95.5 535.38,-125.48 611.75,-151.81 624.21,-156.1 635.88,-165.32 644.35,-173.35"/>
<polygon fill="#000000" fill-opacity="0.200000" stroke="#000000" stroke-opacity="0.200000" points="642.86,-174.83 648.59,-177.58 645.82,-171.86 642.86,-174.83"/>
</g>
<!-- src/app/api/lib/services/lyrics.ts&#45;&gt;src/app/api/lib/errors/services/lyrics.ts -->
<g id="edge54" class="edge">
<title>src/app/api/lib/services/lyrics.ts&#45;&gt;src/app/api/lib/errors/services/lyrics.ts</title>
<path fill="none" stroke="#000000" stroke-width="2" stroke-opacity="0.200000" d="M400.45,-452.23C408.59,-454.33 416.79,-458.1 422,-464.81 441.8,-490.29 407.88,-586.31 430,-609.81 459.14,-640.75 493.67,-592.09 525,-620.81 538.04,-632.76 522.33,-645.69 533,-659.81 535.37,-662.94 538.31,-665.67 541.54,-668.03"/>
<polygon fill="#000000" fill-opacity="0.200000" stroke="#000000" stroke-width="2" stroke-opacity="0.200000" points="540.17,-669.65 546.37,-671.05 542.39,-666.09 540.17,-669.65"/>
</g>
<!-- src/app/api/lib/services/spotify.ts&#45;&gt;node_modules/.pnpm -->
<g id="edge71" class="edge">
<title>src/app/api/lib/services/spotify.ts&#45;&gt;node_modules/.pnpm</title>
<path fill="none" stroke="#000000" stroke-opacity="0.200000" d="M400.4,-477.35C408.53,-475.24 416.74,-471.48 422,-464.81 438.12,-444.33 422.17,-372.66 430,-347.81 456.66,-263.18 455.76,-220.45 533,-176.81 562.37,-160.21 601.95,-167.77 628.59,-176.3"/>
<polygon fill="none" stroke="#000000" stroke-opacity="0.200000" points="627.61,-178.19 633.97,-178.11 628.95,-174.21 627.61,-178.19"/>
</g>
<!-- src/app/api/lib/services/spotify.ts&#45;&gt;src/app/api/lib/clients/spotify.ts -->
<g id="edge69" class="edge">
<title>src/app/api/lib/services/spotify.ts&#45;&gt;src/app/api/lib/clients/spotify.ts</title>
<path fill="none" stroke="#000000" stroke-width="2" stroke-opacity="0.200000" d="M400.87,-486.06C407.98,-488.29 415.49,-491.18 422,-494.81 437.04,-503.19 451.68,-516.17 461.99,-526.36"/>
<polygon fill="#000000" fill-opacity="0.200000" stroke="#000000" stroke-width="2" stroke-opacity="0.200000" points="460.28,-527.62 465.99,-530.43 463.28,-524.67 460.28,-527.62"/>
</g>
<!-- src/app/api/lib/services/spotify.ts&#45;&gt;src/app/api/lib/validation.ts -->
<g id="edge70" class="edge">
<title>src/app/api/lib/services/spotify.ts&#45;&gt;src/app/api/lib/validation.ts</title>
<path fill="none" stroke="#000000" stroke-width="2" stroke-opacity="0.200000" d="M400.42,-482.25C408.55,-484.36 416.76,-488.12 422,-494.81 439.17,-516.71 418.46,-594.48 430,-619.81 435.63,-632.16 446.14,-643.01 455.74,-651.06"/>
<polygon fill="#000000" fill-opacity="0.200000" stroke="#000000" stroke-width="2" stroke-opacity="0.200000" points="454.43,-652.7 460.44,-654.77 457.04,-649.41 454.43,-652.7"/>
</g>
<!-- src/app/api/lib/types/spotify.ts&#45;&gt;node_modules/.pnpm -->
<g id="edge75" class="edge">
<title>src/app/api/lib/types/spotify.ts&#45;&gt;node_modules/.pnpm</title>
<path fill="none" stroke="#000000" stroke-opacity="0.200000" d="M603.54,-394C606.7,-392.09 609.57,-389.73 611.75,-386.81 620.45,-375.14 616.87,-336.07 619.75,-321.81 628.47,-278.63 644.02,-229.05 652.27,-204.05"/>
<polygon fill="none" stroke="#000000" stroke-opacity="0.200000" points="654.2,-204.9 654.1,-198.54 650.21,-203.57 654.2,-204.9"/>
</g>
<!-- src/app/api/lib/utils/genius.ts&#45;&gt;src/app/api/lib/types/genius.ts -->
<g id="edge80" class="edge">
<title>src/app/api/lib/utils/genius.ts&#45;&gt;src/app/api/lib/types/genius.ts</title>
<path fill="none" stroke="#000000" stroke-width="2" stroke-opacity="0.200000" d="M504.79,-371.32C512.22,-373.52 519.71,-377.07 525,-382.81 535.52,-394.22 522.64,-405.25 533,-416.81 535.34,-419.41 538.15,-421.57 541.21,-423.34"/>
<polygon fill="#000000" fill-opacity="0.200000" stroke="#000000" stroke-width="2" stroke-opacity="0.200000" points="540.11,-425.15 546.43,-425.77 541.87,-421.34 540.11,-425.15"/>
</g>
<!-- src/app/api/lib/utils/spotify.ts&#45;&gt;node_modules/.pnpm -->
<g id="edge83" class="edge">
<title>src/app/api/lib/utils/spotify.ts&#45;&gt;node_modules/.pnpm</title>
<path fill="none" stroke="#000000" stroke-opacity="0.200000" d="M504.99,-425.01C512.61,-422.86 520.17,-419.15 525,-412.81 537.34,-396.62 520.77,-246.07 533,-229.81 535.88,-225.98 588.59,-209.12 624.56,-197.96"/>
<polygon fill="none" stroke="#000000" stroke-opacity="0.200000" points="624.96,-200.04 630.07,-196.26 623.72,-196.02 624.96,-200.04"/>
</g>
<!-- src/app/types/spotify.ts -->
<g id="node37" class="node">
<title>src/app/types/spotify.ts</title>
<g id="a_node37"><a xlink:href="src/app/types/spotify.ts" xlink:title="spotify.ts">
<path fill="#ddfeff" stroke="black" d="M597.46,-978.68C597.46,-978.68 555.29,-978.68 555.29,-978.68 552.33,-978.68 549.38,-975.72 549.38,-972.76 549.38,-972.76 549.38,-966.85 549.38,-966.85 549.38,-963.89 552.33,-960.93 555.29,-960.93 555.29,-960.93 597.46,-960.93 597.46,-960.93 600.42,-960.93 603.38,-963.89 603.38,-966.85 603.38,-966.85 603.38,-972.76 603.38,-972.76 603.38,-975.72 600.42,-978.68 597.46,-978.68"/>
<text text-anchor="start" x="558.75" y="-966.13" font-family="Helvetica,sans-Serif" font-size="9.00">spotify.ts</text>
</a>
</g>
</g>
<!-- src/app/api/lib/utils/spotify.ts&#45;&gt;src/app/types/spotify.ts -->
<g id="edge82" class="edge">
<title>src/app/api/lib/utils/spotify.ts&#45;&gt;src/app/types/spotify.ts</title>
<path fill="none" stroke="#000000" stroke-opacity="0.200000" d="M504.6,-430.4C512.39,-432.52 520.15,-436.27 525,-442.81 539.15,-461.86 528.06,-846.6 533,-869.81 539.68,-901.18 556.19,-935.01 566.52,-954.18"/>
<polygon fill="none" stroke="#000000" stroke-opacity="0.200000" points="564.56,-954.98 569.29,-959.23 568.24,-952.96 564.56,-954.98"/>
</g>
<!-- src/app/api/lib/utils/error&#45;handler.ts -->
<g id="node36" class="node">
<title>src/app/api/lib/utils/error&#45;handler.ts</title>
<g id="a_node36"><a xlink:href="src/app/api/lib/utils/error-handler.ts" xlink:title="error&#45;handler.ts">
<path fill="#ddfeff" stroke="black" d="M511.08,-406.68C511.08,-406.68 443.92,-406.68 443.92,-406.68 440.96,-406.68 438,-403.72 438,-400.76 438,-400.76 438,-394.85 438,-394.85 438,-391.89 440.96,-388.93 443.92,-388.93 443.92,-388.93 511.08,-388.93 511.08,-388.93 514.04,-388.93 517,-391.89 517,-394.85 517,-394.85 517,-400.76 517,-400.76 517,-403.72 514.04,-406.68 511.08,-406.68"/>
<text text-anchor="start" x="446" y="-394.13" font-family="Helvetica,sans-Serif" font-size="9.00">error&#45;handler.ts</text>
</a>
</g>
</g>
<!-- src/app/api/lib/utils/error&#45;handler.ts&#45;&gt;node_modules/.pnpm -->
<g id="edge79" class="edge">
<title>src/app/api/lib/utils/error&#45;handler.ts&#45;&gt;node_modules/.pnpm</title>
<path fill="none" stroke="#000000" stroke-opacity="0.200000" d="M517.13,-389.82C520.14,-387.95 522.84,-385.64 525,-382.81 537.08,-366.98 519.52,-218.46 533,-203.81 555.53,-179.32 595.44,-178.32 624.06,-181.52"/>
<polygon fill="#000000" fill-opacity="0.200000" stroke="#000000" stroke-opacity="0.200000" points="623.72,-183.59 629.94,-182.27 624.25,-179.42 623.72,-183.59"/>
</g>
<!-- src/app/api/lib/utils/error&#45;handler.ts&#45;&gt;src/app/api/lib/errors/base.ts -->
<g id="edge76" class="edge">
<title>src/app/api/lib/utils/error&#45;handler.ts&#45;&gt;src/app/api/lib/errors/base.ts</title>
<path fill="none" stroke="#000000" stroke-width="2" stroke-opacity="0.200000" d="M517.34,-406.23C520.23,-408.02 522.84,-410.19 525,-412.81 544.06,-435.96 518.43,-453.6 533,-479.81 554.78,-518.98 587.57,-505.07 611.75,-542.81 646.35,-596.81 654.93,-675.06 657.05,-709.9"/>
<polygon fill="#000000" fill-opacity="0.200000" stroke="#000000" stroke-width="2" stroke-opacity="0.200000" points="654.93,-709.62 657.34,-715.5 659.13,-709.4 654.93,-709.62"/>
</g>
<!-- src/app/api/lib/utils/error&#45;handler.ts&#45;&gt;src/app/api/lib/errors/codes.ts -->
<g id="edge77" class="edge">
<title>src/app/api/lib/utils/error&#45;handler.ts&#45;&gt;src/app/api/lib/errors/codes.ts</title>
<path fill="none" stroke="#000000" stroke-width="2" stroke-opacity="0.200000" d="M517.43,-389.46C520.3,-387.65 522.89,-385.46 525,-382.81 537.79,-366.76 517.87,-304.67 533,-290.81 588.24,-240.16 647.97,-266.69 698.75,-321.81 811.99,-444.73 815.12,-667.43 813.48,-731.88"/>
<polygon fill="#000000" fill-opacity="0.200000" stroke="#000000" stroke-width="2" stroke-opacity="0.200000" points="811.4,-731.44 813.3,-737.5 815.59,-731.57 811.4,-731.44"/>
</g>
<!-- src/app/api/lib/utils/error&#45;handler.ts&#45;&gt;src/app/api/lib/errors/messages.ts -->
<g id="edge78" class="edge">
<title>src/app/api/lib/utils/error&#45;handler.ts&#45;&gt;src/app/api/lib/errors/messages.ts</title>
<path fill="none" stroke="#000000" stroke-width="2" stroke-opacity="0.200000" d="M517.29,-406.28C520.18,-408.06 522.82,-410.21 525,-412.81 541.46,-432.39 514.91,-451.72 533,-469.81 558,-494.79 583.27,-459.89 611.75,-480.81 698.46,-544.49 728.46,-682.46 736.64,-731.81"/>
<polygon fill="#000000" fill-opacity="0.200000" stroke="#000000" stroke-width="2" stroke-opacity="0.200000" points="734.56,-732.1 737.56,-737.7 738.71,-731.45 734.56,-732.1"/>
</g>
</g>
</svg>
